<svg width="207" height="70" viewBox="0 0 207 70" fill="none" xmlns="http://www.w3.org/2000/svg">
<g clip-path="url(#clip0)">
<path d="M190.516 0.0002275H16.4935C15.8592 0.0002275 15.2324 0.0002275 14.5998 0.0037275C14.0702 0.0072275 13.5448 0.017395 13.0101 0.0259525C11.8486 0.0397807 10.6897 0.143161 9.54371 0.335195C8.39929 0.53141 7.29072 0.90133 6.25549 1.43244C5.22153 1.96805 4.27677 2.66402 3.45548 3.4951C2.62988 4.32384 1.94168 5.28176 1.41735 6.33201C0.891561 7.38017 0.52698 8.50337 0.336195 9.66282C0.143596 10.8208 0.0399566 11.9921 0.0262071 13.1663C0.0101542 13.7029 0.00845893 14.2412 0 14.7778V55.2278C0.00845893 55.7712 0.0101542 56.2976 0.0262071 56.8411C0.0399608 58.0152 0.1436 59.1865 0.336195 60.3444C0.526453 61.5046 0.891056 62.6284 1.41735 63.677C1.94145 64.7238 2.62974 65.6778 3.45548 66.502C4.27365 67.3368 5.21903 68.0332 6.25549 68.5647C7.29071 69.0972 8.39916 69.4694 9.54371 69.6686C10.6899 69.8591 11.8487 69.9625 13.0101 69.978C13.5448 69.9899 14.0702 69.9967 14.5998 69.9967C15.2324 70.0002 15.8592 70.0002 16.4935 70.0002H190.516C191.138 70.0002 191.769 70.0002 192.391 69.9967C192.918 69.9967 193.459 69.9899 193.986 69.978C195.145 69.9633 196.302 69.8599 197.445 69.6686C198.594 69.468 199.706 69.0959 200.746 68.5647C201.782 68.0329 202.726 67.3365 203.544 66.502C204.367 65.6746 205.057 64.7213 205.588 63.677C206.11 62.6276 206.471 61.5039 206.659 60.3444C206.852 59.1863 206.959 58.0153 206.98 56.8411C206.987 56.2976 206.987 55.7712 206.987 55.2278C207 54.592 207 53.9597 207 53.3136V16.6885C207 16.0476 207 15.4118 206.987 14.7778C206.987 14.2412 206.987 13.7029 206.98 13.1662C206.959 11.992 206.852 10.8209 206.659 9.66275C206.471 8.50397 206.11 7.38086 205.588 6.33194C204.52 4.22682 202.827 2.51327 200.746 1.43229C199.706 0.90247 198.594 0.532648 197.445 0.335037C196.302 0.142157 195.145 0.0387411 193.986 0.0257075C193.459 0.0171675 192.918 0.0069125 192.391 0.0035C191.769 0 191.138 0 190.516 0V0.0002275Z" fill="#14213D"/>
<path d="M14.6082 68.4688C14.0811 68.4688 13.5668 68.4619 13.0439 68.45C11.9607 68.4358 10.8799 68.3403 9.81059 68.1646C8.81349 67.9909 7.84757 67.6677 6.94469 67.2058C6.05009 66.7477 5.23414 66.147 4.5281 65.4267C3.81184 64.715 3.21553 63.8894 2.76278 62.9829C2.30505 62.0704 1.98827 61.0923 1.82348 60.0828C1.64552 58.998 1.54923 57.9011 1.53546 56.8015C1.52449 56.4324 1.51013 55.2036 1.51013 55.2036V14.7776C1.51013 14.7776 1.52542 13.5676 1.53554 13.2122C1.54873 12.1143 1.64446 11.0191 1.82188 9.93603C1.98698 8.92369 2.304 7.94281 2.76198 7.02735C3.21307 6.1214 3.80607 5.29526 4.51802 4.58094C5.22916 3.85984 6.04772 3.25606 6.94384 2.79162C7.84465 2.33116 8.80875 2.01028 9.80383 1.83972C10.8767 1.66221 11.9612 1.56624 13.0482 1.55262L14.609 1.53125H192.382L193.962 1.55348C195.039 1.56642 196.114 1.66154 197.177 1.83801C198.182 2.01071 199.156 2.33383 200.067 2.79675C201.862 3.73273 203.323 5.21354 204.245 7.03162C204.695 7.94076 205.007 8.91364 205.17 9.91723C205.35 11.0092 205.451 12.113 205.471 13.2199C205.476 13.7155 205.476 14.2478 205.476 14.7776C205.49 15.4338 205.49 16.0585 205.49 16.6882V53.3134C205.49 53.9492 205.49 54.5696 205.476 55.195C205.476 55.7641 205.476 56.2854 205.469 56.822C205.449 57.909 205.35 58.9931 205.174 60.0656C205.012 61.0825 204.697 62.0681 204.24 62.9881C203.784 63.8848 203.191 64.7032 202.483 65.4131C201.776 66.1372 200.959 66.7414 200.062 67.2025C199.154 67.6679 198.181 67.9923 197.177 68.1646C196.107 68.3413 195.027 68.4367 193.943 68.45C193.437 68.4619 192.906 68.4688 192.391 68.4688L190.516 68.4723L14.6082 68.4688Z" fill="#14213D"/>
<path d="M42.8462 35.5266C42.8648 34.0659 43.2483 32.6337 43.9611 31.3633C44.6738 30.0929 45.6926 29.0255 46.9227 28.2604C46.1413 27.1314 45.1104 26.2023 43.9119 25.5468C42.7134 24.8913 41.3804 24.5276 40.0186 24.4845C37.1138 24.1761 34.2977 26.243 32.8175 26.243C31.3086 26.243 29.0295 24.5151 26.5753 24.5662C24.9879 24.6181 23.4408 25.0851 22.0848 25.9217C20.7288 26.7583 19.6102 27.936 18.8379 29.34C15.4924 35.1997 17.9878 43.8116 21.1925 48.5481C22.7959 50.8675 24.6698 53.4583 27.1218 53.3664C29.5212 53.2657 30.4173 51.8186 33.3136 51.8186C36.183 51.8186 37.0237 53.3664 39.5255 53.308C42.1001 53.2657 43.7223 50.9783 45.2694 48.637C46.4215 46.9844 47.3079 45.1578 47.8961 43.2251C46.4002 42.5851 45.1238 41.5138 44.2258 40.1447C43.3278 38.7757 42.848 37.1696 42.8462 35.5266V35.5266Z" fill="white"/>
<path d="M38.121 21.3693C39.5248 19.6645 40.2164 17.4731 40.0489 15.2607C37.9042 15.4886 35.9231 16.5256 34.5003 18.1651C33.8047 18.966 33.2719 19.8977 32.9324 20.9071C32.5929 21.9164 32.4534 22.9836 32.5219 24.0475C33.5946 24.0587 34.6559 23.8234 35.6257 23.3595C36.5956 22.8956 37.4488 22.2151 38.121 21.3693Z" fill="white"/>
<path d="M73.1762 47.4949H64.9882L63.0218 53.3687H59.5537L67.3093 31.6372H70.9126L78.6681 53.3687H75.1409L73.1762 47.4949ZM65.8362 44.7845H72.3266L69.127 35.2517H69.0375L65.8362 44.7845Z" fill="white"/>
<path d="M95.4176 45.4475C95.4176 50.3711 92.8127 53.5344 88.8817 53.5344C87.8859 53.5871 86.8955 53.3551 86.0241 52.8648C85.1526 52.3746 84.4352 51.646 83.954 50.7624H83.8796V58.6101H80.6649V37.5247H83.7766V40.1599H83.8357C84.339 39.2806 85.0686 38.5558 85.9467 38.0625C86.8248 37.5693 87.8187 37.3261 88.8225 37.3589C92.7974 37.3589 95.4176 40.5376 95.4176 45.4475ZM92.1133 45.4475C92.1133 42.2398 90.4747 40.1309 87.9745 40.1309C85.5183 40.1309 83.8661 42.2842 83.8661 45.4475C83.8661 48.6399 85.5183 50.7778 87.9745 50.7778C90.4747 50.7778 92.1133 48.6843 92.1133 45.4475Z" fill="white"/>
<path d="M112.655 45.4475C112.655 50.3711 110.05 53.5344 106.119 53.5344C105.123 53.5871 104.133 53.3551 103.262 52.8648C102.39 52.3746 101.673 51.646 101.192 50.7624H101.117V58.6101H97.9024V37.5246H101.014V40.1599H101.073C101.577 39.2806 102.306 38.5558 103.184 38.0625C104.062 37.5693 105.056 37.3261 106.06 37.3589C110.035 37.3589 112.655 40.5376 112.655 45.4475ZM109.351 45.4475C109.351 42.2398 107.712 40.1308 105.212 40.1308C102.756 40.1308 101.104 42.2842 101.104 45.4475C101.104 48.6399 102.756 50.7778 105.212 50.7778C107.712 50.7778 109.351 48.6843 109.351 45.4475H109.351Z" fill="white"/>
<path d="M124.048 47.3138C124.286 49.4688 126.355 50.8838 129.183 50.8838C131.893 50.8838 133.842 49.4688 133.842 47.5256C133.842 45.8389 132.667 44.8289 129.883 44.1367L127.099 43.4583C123.154 42.4944 121.323 40.6282 121.323 37.5999C121.323 33.8503 124.553 31.2749 129.139 31.2749C133.678 31.2749 136.79 33.8503 136.895 37.5999H133.65C133.455 35.4312 131.683 34.1221 129.094 34.1221C126.504 34.1221 124.732 35.4466 124.732 37.3743C124.732 38.9107 125.864 39.8147 128.632 40.5068L130.999 41.0947C135.407 42.1491 137.238 43.9402 137.238 47.1188C137.238 51.1845 134.037 53.7309 128.945 53.7309C124.181 53.7309 120.965 51.2443 120.757 47.3137L124.048 47.3138Z" fill="white"/>
<path d="M144.176 33.7754V37.5249H147.154V40.1003H144.176V48.835C144.176 50.1919 144.772 50.8242 146.081 50.8242C146.435 50.818 146.788 50.7929 147.139 50.749V53.309C146.55 53.4203 145.952 53.4707 145.353 53.4594C142.182 53.4594 140.946 52.2546 140.946 49.1818V40.1003H138.669V37.5249H140.946V33.7754H144.176Z" fill="white"/>
<path d="M148.879 45.4478C148.879 40.4626 151.781 37.3301 156.307 37.3301C160.848 37.3301 163.736 40.4626 163.736 45.4478C163.736 50.4465 160.863 53.5654 156.307 53.5654C151.752 53.5654 148.879 50.4465 148.879 45.4478ZM160.461 45.4478C160.461 42.0281 158.912 40.0098 156.307 40.0098C153.702 40.0098 152.154 42.0435 152.154 45.4478C152.154 48.8811 153.702 50.884 156.307 50.884C158.912 50.884 160.461 48.8811 160.461 45.4478H160.461Z" fill="white"/>
<path d="M166.387 37.525H169.453V40.2217H169.527C169.735 39.3795 170.222 38.6352 170.908 38.1139C171.594 37.5926 172.437 37.3261 173.294 37.3592C173.665 37.3579 174.034 37.3986 174.396 37.4805V40.5225C173.928 40.378 173.44 40.3116 172.951 40.326C172.484 40.3068 172.019 40.3901 171.587 40.5702C171.154 40.7502 170.766 41.0228 170.448 41.3691C170.129 41.7154 169.889 42.1273 169.743 42.5765C169.597 43.0256 169.549 43.5014 169.601 43.9713V53.369H166.387L166.387 37.525Z" fill="white"/>
<path d="M189.218 48.7153C188.785 51.5915 186.016 53.5654 182.474 53.5654C177.918 53.5654 175.09 50.4773 175.09 45.5229C175.09 40.5532 177.933 37.3301 182.339 37.3301C186.672 37.3301 189.397 40.3413 189.397 45.1453V46.2595H178.335V46.456C178.284 47.0391 178.356 47.6266 178.547 48.1793C178.737 48.732 179.042 49.2374 179.441 49.6618C179.839 50.0863 180.322 50.4201 180.858 50.6412C181.394 50.8622 181.97 50.9654 182.548 50.9438C183.308 51.0158 184.07 50.8378 184.722 50.4363C185.374 50.0348 185.88 49.4312 186.165 48.7153L189.218 48.7153ZM178.35 43.9866H186.18C186.209 43.4623 186.13 42.9376 185.949 42.4455C185.768 41.9534 185.489 41.5044 185.128 41.1268C184.767 40.7493 184.333 40.4512 183.853 40.2513C183.373 40.0514 182.858 39.9541 182.339 39.9653C181.815 39.9622 181.296 40.0639 180.812 40.2647C180.327 40.4655 179.887 40.7614 179.516 41.1352C179.145 41.5091 178.852 41.9536 178.651 42.4429C178.451 42.9323 178.349 43.457 178.35 43.9866V43.9866Z" fill="white"/>
<path d="M65.4334 15.2789C66.1073 15.23 66.7836 15.333 67.4135 15.5805C68.0433 15.828 68.611 16.2139 69.0757 16.7102C69.5403 17.2066 69.8902 17.801 70.1002 18.4508C70.3102 19.1005 70.3751 19.7893 70.2901 20.4674C70.2901 23.8033 68.5079 25.7209 65.4334 25.7209H61.7051V15.2789H65.4334ZM63.3082 24.2442H65.2543C65.7359 24.2733 66.2178 24.1934 66.6651 24.0104C67.1123 23.8273 67.5135 23.5456 67.8396 23.1859C68.1657 22.8261 68.4083 22.3974 68.5499 21.9308C68.6916 21.4642 68.7285 20.9716 68.6582 20.4887C68.7234 20.0077 68.6827 19.5181 68.5389 19.055C68.3951 18.5918 68.1519 18.1666 67.8266 17.8097C67.5012 17.4528 67.1019 17.1731 66.6572 16.9907C66.2125 16.8083 65.7334 16.7277 65.2543 16.7546H63.3082V24.2442Z" fill="white"/>
<path d="M72.101 21.7776C72.052 21.2598 72.1106 20.7373 72.2729 20.2437C72.4352 19.75 72.6978 19.2962 73.0436 18.9112C73.3895 18.5262 73.8111 18.2187 74.2813 18.0082C74.7516 17.7977 75.2601 17.689 75.7744 17.689C76.2886 17.689 76.7972 17.7977 77.2674 18.0082C77.7377 18.2187 78.1593 18.5262 78.5051 18.9112C78.851 19.2962 79.1135 19.75 79.2758 20.2437C79.4382 20.7373 79.4967 21.2598 79.4478 21.7776C79.4977 22.296 79.4398 22.8192 79.2779 23.3137C79.116 23.8081 78.8536 24.2628 78.5077 24.6485C78.1617 25.0342 77.7398 25.3424 77.2691 25.5534C76.7984 25.7643 76.2892 25.8733 75.7744 25.8733C75.2595 25.8733 74.7504 25.7643 74.2797 25.5534C73.8089 25.3424 73.387 25.0342 73.0411 24.6485C72.6951 24.2628 72.4328 23.8081 72.2709 23.3137C72.109 22.8192 72.0511 22.296 72.101 21.7776V21.7776ZM77.8666 21.7776C77.8666 20.0695 77.1081 19.0706 75.7769 19.0706C74.4407 19.0706 73.689 20.0695 73.689 21.7776C73.689 23.4995 74.4407 24.4907 75.7769 24.4907C77.1081 24.4906 77.8666 23.4926 77.8666 21.7776H77.8666Z" fill="white"/>
<path d="M89.2136 25.7209H87.619L86.0091 19.9172H85.8874L84.2843 25.7209H82.7048L80.5577 17.8408H82.1169L83.5123 23.8538H83.6271L85.2286 17.8408H86.7034L88.3048 23.8538H88.4264L89.815 17.8408H91.3523L89.2136 25.7209Z" fill="white"/>
<path d="M93.1582 17.841H94.638V19.0928H94.7528C94.9477 18.6432 95.2764 18.2663 95.6931 18.0147C96.1097 17.763 96.5936 17.6491 97.0773 17.6889C97.4563 17.6601 97.8369 17.7179 98.1908 17.8581C98.5447 17.9982 98.863 18.2172 99.1219 18.4986C99.3808 18.7801 99.5738 19.1169 99.6866 19.4841C99.7994 19.8513 99.8291 20.2394 99.7734 20.6198V25.7211H98.2362V21.0103C98.2362 19.744 97.6922 19.1142 96.5553 19.1142C96.298 19.1021 96.0411 19.1464 95.8023 19.2441C95.5635 19.3418 95.3484 19.4906 95.1717 19.6803C94.9951 19.8699 94.861 20.096 94.7788 20.343C94.6966 20.59 94.6681 20.852 94.6954 21.1112V25.7211H93.1581L93.1582 17.841Z" fill="white"/>
<path d="M102.223 14.7646H103.76V25.7209H102.223V14.7646Z" fill="white"/>
<path d="M105.897 21.7773C105.848 21.2594 105.907 20.7369 106.069 20.2432C106.232 19.7496 106.494 19.2957 106.84 18.9107C107.186 18.5258 107.608 18.2182 108.078 18.0077C108.548 17.7972 109.057 17.6885 109.571 17.6885C110.085 17.6885 110.594 17.7972 111.064 18.0077C111.534 18.2182 111.956 18.5258 112.302 18.9107C112.648 19.2957 112.91 19.7496 113.073 20.2432C113.235 20.7369 113.294 21.2594 113.245 21.7773C113.295 22.2957 113.237 22.8189 113.075 23.3133C112.913 23.8078 112.65 24.2624 112.304 24.6481C111.958 25.0339 111.536 25.3421 111.066 25.553C110.595 25.7639 110.086 25.8729 109.571 25.8729C109.056 25.8729 108.547 25.7639 108.076 25.553C107.605 25.3421 107.184 25.0339 106.838 24.6481C106.492 24.2624 106.229 23.8078 106.067 23.3133C105.905 22.8189 105.847 22.2957 105.897 21.7773V21.7773ZM111.663 21.7773C111.663 20.0692 110.904 19.0703 109.573 19.0703C108.237 19.0703 107.485 20.0692 107.485 21.7773C107.485 23.4991 108.237 24.4903 109.573 24.4903C110.904 24.4903 111.663 23.4923 111.663 21.7773H111.663Z" fill="white"/>
<path d="M114.863 23.4927C114.863 22.0742 115.907 21.2565 117.76 21.1402L119.87 21.0172V20.337C119.87 19.5047 119.326 19.0348 118.275 19.0348C117.417 19.0348 116.823 19.3535 116.652 19.9106H115.164C115.321 18.5571 116.579 17.689 118.346 17.689C120.299 17.689 121.401 18.6725 121.401 20.337V25.7212H119.921V24.6138H119.799C119.552 25.011 119.206 25.3348 118.795 25.5522C118.384 25.7696 117.923 25.8727 117.46 25.851C117.133 25.8854 116.802 25.8501 116.489 25.7474C116.177 25.6447 115.889 25.4768 115.644 25.2546C115.399 25.0324 115.204 24.7608 115.069 24.4574C114.935 24.1539 114.864 23.8253 114.863 23.4927V23.4927ZM119.87 22.8193V22.1605L117.968 22.2836C116.895 22.3562 116.409 22.7253 116.409 23.42C116.409 24.1292 117.017 24.542 117.853 24.542C118.098 24.5671 118.346 24.542 118.581 24.4684C118.816 24.3947 119.034 24.2739 119.223 24.1132C119.411 23.9525 119.565 23.7551 119.676 23.5328C119.788 23.3105 119.854 23.0679 119.87 22.8193V22.8193Z" fill="white"/>
<path d="M123.421 21.7775C123.421 19.2875 124.686 17.7101 126.654 17.7101C127.141 17.6874 127.624 17.8054 128.047 18.0502C128.47 18.295 128.816 18.6566 129.043 19.0926H129.158V14.7646H130.695V25.7209H129.222V24.4759H129.101C128.856 24.909 128.498 25.2661 128.067 25.5085C127.636 25.7508 127.147 25.8692 126.654 25.8508C124.673 25.8509 123.421 24.2735 123.421 21.7775ZM125.009 21.7775C125.009 23.4489 125.788 24.4546 127.09 24.4546C128.386 24.4546 129.187 23.4344 129.187 21.7843C129.187 20.142 128.378 19.1072 127.09 19.1072C125.796 19.1072 125.009 20.1198 125.009 21.7775H125.009Z" fill="white"/>
<path d="M137.055 21.7776C137.006 21.2598 137.065 20.7373 137.227 20.2437C137.39 19.75 137.652 19.2962 137.998 18.9112C138.344 18.5262 138.765 18.2187 139.236 18.0082C139.706 17.7977 140.215 17.689 140.729 17.689C141.243 17.689 141.752 17.7977 142.222 18.0082C142.692 18.2187 143.114 18.5262 143.46 18.9112C143.805 19.2962 144.068 19.75 144.23 20.2437C144.393 20.7373 144.451 21.2598 144.402 21.7776C144.452 22.296 144.394 22.8192 144.232 23.3137C144.07 23.8081 143.808 24.2628 143.462 24.6485C143.116 25.0342 142.694 25.3424 142.223 25.5534C141.753 25.7643 141.244 25.8733 140.729 25.8733C140.214 25.8733 139.705 25.7643 139.234 25.5534C138.763 25.3424 138.341 25.0342 137.995 24.6485C137.65 24.2628 137.387 23.8081 137.225 23.3137C137.063 22.8192 137.006 22.296 137.055 21.7776V21.7776ZM142.821 21.7776C142.821 20.0695 142.062 19.0706 140.731 19.0706C139.395 19.0706 138.643 20.0695 138.643 21.7776C138.643 23.4995 139.395 24.4907 140.731 24.4907C142.062 24.4906 142.821 23.4926 142.821 21.7776Z" fill="white"/>
<path d="M146.465 17.841H147.945V19.0928H148.06C148.254 18.6432 148.583 18.2663 149 18.0147C149.416 17.763 149.9 17.6491 150.384 17.6889C150.763 17.6601 151.144 17.7179 151.498 17.8581C151.851 17.9982 152.17 18.2172 152.429 18.4986C152.688 18.7801 152.881 19.1169 152.993 19.4841C153.106 19.8513 153.136 20.2394 153.08 20.6198V25.7211H151.543V21.0103C151.543 19.744 150.999 19.1142 149.862 19.1142C149.605 19.1021 149.348 19.1464 149.109 19.2441C148.87 19.3418 148.655 19.4906 148.478 19.6803C148.302 19.8699 148.168 20.096 148.086 20.343C148.003 20.59 147.975 20.852 148.002 21.1112V25.7211H146.465V17.841Z" fill="white"/>
<path d="M161.766 15.8789V17.8767H163.454V19.1867H161.766V23.2387C161.766 24.0641 162.103 24.4255 162.868 24.4255C163.064 24.4249 163.26 24.4129 163.454 24.3896V25.685C163.178 25.735 162.898 25.7616 162.618 25.7645C160.908 25.7645 160.228 25.1561 160.228 23.6368V19.1866H158.991V17.8766H160.228V15.8789H161.766Z" fill="white"/>
<path d="M165.554 14.7646H167.078V19.1072H167.199C167.404 18.6534 167.741 18.2743 168.166 18.0217C168.591 17.7691 169.083 17.6552 169.574 17.6956C169.951 17.6748 170.328 17.7385 170.678 17.8821C171.028 18.0256 171.342 18.2456 171.599 18.5262C171.855 18.8067 172.047 19.1411 172.16 19.5053C172.274 19.8696 172.307 20.2547 172.257 20.6333V25.721H170.718V21.017C170.718 19.7583 170.139 19.1208 169.052 19.1208C168.788 19.0989 168.523 19.1357 168.274 19.2285C168.025 19.3213 167.799 19.468 167.613 19.6583C167.426 19.8486 167.282 20.0779 167.192 20.3302C167.102 20.5824 167.068 20.8515 167.091 21.1186V25.7209H165.554L165.554 14.7646Z" fill="white"/>
<path d="M181.22 23.5931C181.012 24.3133 180.559 24.9363 179.942 25.3531C179.325 25.7698 178.583 25.9538 177.845 25.8729C177.332 25.8866 176.822 25.7872 176.351 25.5815C175.879 25.3758 175.458 25.0689 175.115 24.6819C174.773 24.2949 174.518 23.8371 174.368 23.3405C174.218 22.8438 174.177 22.32 174.247 21.8056C174.179 21.2895 174.221 20.7646 174.37 20.2664C174.52 19.7683 174.774 19.3084 175.114 18.918C175.455 18.5277 175.874 18.2159 176.344 18.0038C176.814 17.7916 177.324 17.6842 177.838 17.6886C180.006 17.6886 181.313 19.1866 181.313 21.6611V22.2038H175.813V22.2909C175.789 22.5801 175.825 22.8712 175.918 23.1455C176.012 23.4198 176.161 23.6713 176.357 23.8838C176.552 24.0964 176.789 24.2653 177.053 24.3797C177.316 24.4942 177.601 24.5516 177.887 24.5484C178.255 24.5931 178.628 24.5261 178.958 24.356C179.288 24.1859 179.56 23.9203 179.741 23.5931L181.22 23.5931ZM175.813 21.0536H179.747C179.767 20.7891 179.731 20.5235 179.643 20.2737C179.555 20.024 179.416 19.7956 179.235 19.6034C179.055 19.4111 178.837 19.2592 178.595 19.1574C178.352 19.0556 178.092 19.0061 177.83 19.0122C177.564 19.0088 177.3 19.0593 177.054 19.1607C176.808 19.2621 176.584 19.4124 176.396 19.6027C176.208 19.7929 176.06 20.0193 175.959 20.2685C175.859 20.5177 175.81 20.7846 175.813 21.0536H175.813Z" fill="white"/>
</g>
<defs>
<clipPath id="clip0">
<rect width="207" height="70" fill="white"/>
</clipPath>
</defs>
</svg>
