<svg id="Calque_1" data-name="Calque 1" xmlns="http://www.w3.org/2000/svg" xmlns:xlink="http://www.w3.org/1999/xlink" viewBox="0 0 239 70"><defs><style>.cls-1{fill:#14213d;}.cls-2{fill:#fff;}.cls-3{fill:url(#Dégradé_sans_nom_12);}.cls-4{fill:url(#Dégradé_sans_nom_2);}.cls-5{fill:url(#Dégradé_sans_nom_3);}.cls-6{fill:url(#Dégradé_sans_nom_4);}.cls-7{fill:url(#Dégradé_sans_nom_5);}.cls-8{fill:url(#Dégradé_sans_nom_6);}.cls-9{fill:url(#Dégradé_sans_nom_7);}.cls-10{fill:url(#Dégradé_sans_nom_8);}.cls-11{fill:url(#Dégradé_sans_nom_9);}.cls-12{fill:url(#Dégradé_sans_nom_10);}.cls-13{fill:url(#Dégradé_sans_nom_11);}</style><linearGradient id="Dégradé_sans_nom_12" x1="341.21" y1="803.7" x2="312.12" y2="774.57" gradientTransform="matrix(1, 0, 0, -1, 539, 1324.5)" gradientUnits="userSpaceOnUse"><stop offset="0" stop-color="#00a0ff"/><stop offset="0.01" stop-color="#00a1ff"/><stop offset="0.26" stop-color="#00beff"/><stop offset="0.51" stop-color="#00d2ff"/><stop offset="0.76" stop-color="#00dfff"/><stop offset="1" stop-color="#00e3ff"/></linearGradient><linearGradient id="Dégradé_sans_nom_2" x1="362.11" y1="783.99" x2="320.12" y2="783.99" gradientTransform="matrix(1, 0, 0, -1, 539, 1324.5)" gradientUnits="userSpaceOnUse"><stop offset="0" stop-color="#ffe000"/><stop offset="0.41" stop-color="#ffbd00"/><stop offset="0.78" stop-color="orange"/><stop offset="1" stop-color="#ff9c00"/></linearGradient><linearGradient id="Dégradé_sans_nom_3" x1="346.39" y1="780.23" x2="306.94" y2="740.73" gradientTransform="matrix(1, 0, 0, -1, 539, 1324.5)" gradientUnits="userSpaceOnUse"><stop offset="0" stop-color="#ff3a44"/><stop offset="1" stop-color="#c31162"/></linearGradient><linearGradient id="Dégradé_sans_nom_4" x1="316.08" y1="818.5" x2="333.7" y2="800.86" gradientTransform="matrix(1, 0, 0, -1, 539, 1324.5)" gradientUnits="userSpaceOnUse"><stop offset="0" stop-color="#32a071"/><stop offset="0.07" stop-color="#2da771"/><stop offset="0.48" stop-color="#15cf74"/><stop offset="0.8" stop-color="#06e775"/><stop offset="1" stop-color="#00f076"/></linearGradient><linearGradient id="Dégradé_sans_nom_5" x1="362.11" y1="776.75" x2="320.12" y2="776.75" gradientTransform="matrix(1, 0, 0, -1, 539, 1324.5)" gradientUnits="userSpaceOnUse"><stop offset="0" stop-color="#ccb300"/><stop offset="0.41" stop-color="#cc9700"/><stop offset="0.78" stop-color="#cc8400"/><stop offset="1" stop-color="#cc7d00"/></linearGradient><linearGradient id="Dégradé_sans_nom_6" x1="346.47" y1="780.15" x2="307.02" y2="740.65" gradientTransform="matrix(1, 0, 0, -1, 539, 1324.5)" gradientUnits="userSpaceOnUse"><stop offset="0" stop-color="#cc2e36"/><stop offset="1" stop-color="#9c0e4e"/></linearGradient><linearGradient id="Dégradé_sans_nom_7" x1="342.79" y1="783.82" x2="303.34" y2="744.32" gradientTransform="matrix(1, 0, 0, -1, 539, 1324.5)" gradientUnits="userSpaceOnUse"><stop offset="0" stop-color="#e0333c"/><stop offset="1" stop-color="#ab0f56"/></linearGradient><linearGradient id="Dégradé_sans_nom_8" x1="362.11" y1="780.45" x2="320.12" y2="780.45" gradientTransform="matrix(1, 0, 0, -1, 539, 1324.5)" gradientUnits="userSpaceOnUse"><stop offset="0" stop-color="#e0c500"/><stop offset="0.41" stop-color="#e0a600"/><stop offset="0.78" stop-color="#e09100"/><stop offset="1" stop-color="#e08900"/></linearGradient><linearGradient id="Dégradé_sans_nom_9" x1="362.11" y1="787.77" x2="320.12" y2="787.77" gradientTransform="matrix(1, 0, 0, -1, 539, 1324.5)" gradientUnits="userSpaceOnUse"><stop offset="0" stop-color="#ffe840"/><stop offset="0.41" stop-color="#ffce40"/><stop offset="0.78" stop-color="#ffbc40"/><stop offset="1" stop-color="#ffb540"/></linearGradient><linearGradient id="Dégradé_sans_nom_10" x1="330.81" y1="814.09" x2="301.72" y2="784.96" gradientTransform="matrix(1, 0, 0, -1, 539, 1324.5)" gradientUnits="userSpaceOnUse"><stop offset="0" stop-color="#40b8ff"/><stop offset="0.01" stop-color="#40b9ff"/><stop offset="0.26" stop-color="#40ceff"/><stop offset="0.51" stop-color="#40ddff"/><stop offset="0.76" stop-color="#40e7ff"/><stop offset="1" stop-color="#40eaff"/></linearGradient><linearGradient id="Dégradé_sans_nom_11" x1="316.08" y1="818.5" x2="333.7" y2="800.86" gradientTransform="matrix(1, 0, 0, -1, 539, 1324.5)" gradientUnits="userSpaceOnUse"><stop offset="0" stop-color="#65b895"/><stop offset="0.07" stop-color="#62bd95"/><stop offset="0.48" stop-color="#50db97"/><stop offset="0.8" stop-color="#44ed98"/><stop offset="1" stop-color="#40f498"/></linearGradient></defs><path class="cls-1" d="M1060,505.38H856.9l-1.84,0a29.68,29.68,0,0,0-4,.31,15,15,0,0,0-3.8,1.1,12.88,12.88,0,0,0-3.23,2.06,11.17,11.17,0,0,0-2.36,2.84,10.65,10.65,0,0,0-1.24,3.33,18.81,18.81,0,0,0-.36,3.5c0,.54,0,1.08,0,1.61v40.45c0,.55,0,1.07,0,1.62a18.81,18.81,0,0,0,.36,3.5,10.74,10.74,0,0,0,1.24,3.33,11.12,11.12,0,0,0,2.36,2.83,12.53,12.53,0,0,0,3.23,2.06,15,15,0,0,0,3.8,1.1,29.68,29.68,0,0,0,4,.31l1.84,0h205.27l1.84,0a29.68,29.68,0,0,0,4-.31,15,15,0,0,0,3.81-1.1,12.88,12.88,0,0,0,3.23-2.06,11.33,11.33,0,0,0,2.36-2.83,10.47,10.47,0,0,0,1.23-3.33,20.7,20.7,0,0,0,.38-3.5v-1.62c0-.63,0-1.27,0-1.91V522.07c0-.64,0-1.27,0-1.91v-1.61a20.7,20.7,0,0,0-.38-3.5,10.47,10.47,0,0,0-1.23-3.33,12.2,12.2,0,0,0-5.59-4.9,15,15,0,0,0-3.81-1.1,29.68,29.68,0,0,0-4-.31l-1.84,0Z" transform="translate(-840.04 -505.38)"/><path class="cls-1" d="M856.9,573.85c-.6,0-1.2,0-1.8,0a29,29,0,0,1-3.73-.28,12.75,12.75,0,0,1-3.31-1,10.71,10.71,0,0,1-2.79-1.78,9.44,9.44,0,0,1-2-2.44,9.21,9.21,0,0,1-1.09-2.9,20.15,20.15,0,0,1-.33-3.28c0-.37,0-1.6,0-1.6V520.16s0-1.21,0-1.56a20,20,0,0,1,.33-3.28,9.26,9.26,0,0,1,1.09-2.91,9.56,9.56,0,0,1,2-2.44,10.93,10.93,0,0,1,2.81-1.79,12.79,12.79,0,0,1,3.3-1,29.28,29.28,0,0,1,3.74-.28l1.81,0h205.25l1.82,0a28.83,28.83,0,0,1,3.72.28,13.42,13.42,0,0,1,3.33,1,10.62,10.62,0,0,1,4.83,4.24,9.3,9.3,0,0,1,1.07,2.88,20.41,20.41,0,0,1,.34,3.3c0,.5,0,1,0,1.56s0,1.28,0,1.91V558.7c0,.63,0,1.25,0,1.88s0,1.09,0,1.63a19.68,19.68,0,0,1-.34,3.24,9.2,9.2,0,0,1-1.08,2.92,9.56,9.56,0,0,1-2,2.43,10.91,10.91,0,0,1-2.79,1.79,13,13,0,0,1-3.33,1,27.57,27.57,0,0,1-3.74.28c-.58,0-1.19,0-1.79,0H856.9Z" transform="translate(-840.04 -505.38)"/><path class="cls-2" d="M924.69,523.47a4.65,4.65,0,0,1-1.3,3.47,5,5,0,0,1-3.82,1.54,5.43,5.43,0,1,1,0-10.86,5.42,5.42,0,0,1,2.14.43,4.32,4.32,0,0,1,1.62,1.17l-.91.91a3.53,3.53,0,0,0-2.85-1.23,4.16,4.16,0,1,0,2.91,7.14,3.27,3.27,0,0,0,.87-2.1h-3.78v-1.25h5a4.3,4.3,0,0,1,.08.78" transform="translate(-840.04 -505.38)"/><path class="cls-2" d="M924.69,523.47h-.18a4.5,4.5,0,0,1-1.24,3.35h0a4.85,4.85,0,0,1-3.7,1.49,5.26,5.26,0,1,1,0-10.52,5.25,5.25,0,0,1,2.07.42,4.21,4.21,0,0,1,1.56,1.12l.13-.11-.12-.13-.91.92.12.12.13-.11a3.71,3.71,0,0,0-3-1.3,4.33,4.33,0,1,0,3,7.45,3.45,3.45,0,0,0,.92-2.22l0-.19h-3.8v-.9h4.87v-.17l-.17,0a4,4,0,0,1,.07.75h.35a4.59,4.59,0,0,0-.07-.81l0-.14H919.4v1.59h4v-.17l-.17,0a3.12,3.12,0,0,1-.83,2,4,4,0,1,1-2.78-6.85,3.35,3.35,0,0,1,2.72,1.17l.12.15,1.05-1,.11-.11-.1-.12a4.38,4.38,0,0,0-1.7-1.21,5.48,5.48,0,0,0-2.2-.45,5.61,5.61,0,1,0,0,11.21,5.2,5.2,0,0,0,3.95-1.6l-.13-.12.13.13a4.87,4.87,0,0,0,1.34-3.6Z" transform="translate(-840.04 -505.38)"/><path class="cls-2" d="M932.69,519.13h-4.75v3.3h4.28v1.25h-4.28V527h4.75v1.28h-6.08v-10.4h6.08Z" transform="translate(-840.04 -505.38)"/><path class="cls-2" d="M932.69,519.13V519h-4.92v3.64h4.28v.9h-4.28v3.65h4.74v.93h-5.73V518h5.73v1.11h.18v0h.17v-1.45h-6.43v10.74h6.43V526.8h-4.74v-2.95h4.27v-1.6h-4.27v-3h4.74v-.17h-.17" transform="translate(-840.04 -505.38)"/><path class="cls-2" d="M938.33,528.25H937v-9.12h-2.91v-1.28h7.16v1.28h-2.91Z" transform="translate(-840.04 -505.38)"/><path class="cls-2" d="M938.33,528.25v-.17h-1.17V519h-2.9V518h6.8V519h-2.9v9.29h.17v0h.17v-9h2.91v-1.62h-7.5v1.62h2.91v9.12h1.68v-.17h-.17" transform="translate(-840.04 -505.38)"/><path class="cls-2" d="M946.41,528.25v-10.4h1.34v10.4Z" transform="translate(-840.04 -505.38)"/><path class="cls-2" d="M946.41,528.25h.18V518h1v10.06h-1.17v.17h0v.17h1.52V517.68h-1.69v10.74h.17Z" transform="translate(-840.04 -505.38)"/><path class="cls-2" d="M953.69,528.25h-1.34v-9.12h-2.91v-1.28h7.16v1.28h-2.91Z" transform="translate(-840.04 -505.38)"/><path class="cls-2" d="M953.69,528.25v-.17h-1.17V519h-2.91V518h6.81V519h-2.91v9.29h.18v0h.17v-9h2.91v-1.62h-7.5v1.62h2.9v9.12h1.69v-.17h-.17" transform="translate(-840.04 -505.38)"/><path class="cls-2" d="M963.49,526a4,4,0,0,0,5.66,0,4.42,4.42,0,0,0,0-6,4,4,0,0,0-5.66,0,4.45,4.45,0,0,0,0,6Zm6.65.87a5.42,5.42,0,0,1-7.63,0,5.6,5.6,0,0,1,0-7.71,5.38,5.38,0,0,1,7.62,0,5.58,5.58,0,0,1,0,7.71Z" transform="translate(-840.04 -505.38)"/><path class="cls-2" d="M963.49,526l-.12.12a4.18,4.18,0,0,0,5.9,0,4.6,4.6,0,0,0,0-6.22,4.18,4.18,0,0,0-5.9,0,4.6,4.6,0,0,0,0,6.22l.12-.12.13-.13a4.24,4.24,0,0,1,0-5.72,3.83,3.83,0,0,1,5.41,0,4.24,4.24,0,0,1,0,5.72,3.83,3.83,0,0,1-5.41,0Zm6.65.87-.12-.12a5.25,5.25,0,0,1-7.39,0h0a5.45,5.45,0,0,1,0-7.47,5.21,5.21,0,0,1,7.38,0,5.44,5.44,0,0,1,0,7.47l.12.12.13.12a5.78,5.78,0,0,0,0-7.95,5.59,5.59,0,0,0-7.88,0h0a5.8,5.8,0,0,0,0,8h0a5.59,5.59,0,0,0,7.89,0l-.13-.12" transform="translate(-840.04 -505.38)"/><path class="cls-2" d="M973.55,528.25v-10.4h1.63l5.06,8.09h.06l-.06-2v-6.09h1.34v10.4h-1.4l-5.29-8.48h-.06l.06,2v6.48Z" transform="translate(-840.04 -505.38)"/><path class="cls-2" d="M973.55,528.25h.18V518h1.36l5.06,8.1h.33l-.06-2.19V518h1v10.06h-1.13L975,519.6h-.34l.07,2.18v6.3h-1.17v.17h0v.17h1.51v-6.65l0-2h-.18v.17h.06v-.17l-.15.09,5.35,8.56h1.66V517.68h-1.68v6.26l.06,2h.17v-.17h-.06v.17l.15-.09-5.11-8.17h-1.9v10.74h.17Z" transform="translate(-840.04 -505.38)"/><path class="cls-2" d="M1028,557.72h3.24V536.05H1028Zm29.17-13.87-3.71,9.4h-.12l-3.85-9.4H1046l5.78,13.14-3.29,7.3h3.38l8.9-20.44Zm-18.37,11.41c-1.06,0-2.54-.53-2.54-1.84,0-1.68,1.84-2.32,3.43-2.32a5.73,5.73,0,0,1,3,.73,3.92,3.92,0,0,1-3.85,3.43Zm.39-11.88a6.07,6.07,0,0,0-5.77,3.32l2.87,1.2a3.07,3.07,0,0,1,3-1.59c1.67,0,3.38,1,3.4,2.79v.22a7.06,7.06,0,0,0-3.37-.84c-3.1,0-6.26,1.7-6.26,4.88,0,2.9,2.54,4.77,5.39,4.77a4.57,4.57,0,0,0,4.13-2.12h.11v1.67h3.13v-8.31c0-3.84-2.87-6-6.59-6Zm-20,3.11h-4.61v-7.42h4.61a3.71,3.71,0,1,1,0,7.42Zm-.08-10.44h-7.76v21.67h3.23v-8.21h4.53a6.74,6.74,0,1,0,0-13.46Zm-42.32,19.21a4.49,4.49,0,0,1,0-8.94c2.21,0,4,1.9,4,4.5s-1.74,4.44-4,4.44Zm3.72-10.19h-.11a5.12,5.12,0,0,0-3.89-1.65,7.38,7.38,0,0,0,0,14.74,5.06,5.06,0,0,0,3.89-1.67h.11v1.06c0,2.82-1.51,4.33-3.94,4.33a4.08,4.08,0,0,1-3.72-2.63L970,560.43a7,7,0,0,0,6.54,4.35c3.8,0,7-2.23,7-7.68V543.87h-3.08Zm5.31,12.65H989V536.05h-3.25Zm8-7.15a4,4,0,0,1,3.86-4.3,2.87,2.87,0,0,1,2.74,1.56Zm10.06-2.46a6.85,6.85,0,0,0-6.32-4.69,7,7,0,0,0-7,7.37,7.21,7.21,0,0,0,7.33,7.37,7.34,7.34,0,0,0,6.15-3.26l-2.52-1.68a4.21,4.21,0,0,1-3.63,2,3.75,3.75,0,0,1-3.58-2.23l9.87-4.08Zm-78.63-2.43v3.13h7.49a6.55,6.55,0,0,1-1.7,3.94,7.68,7.68,0,0,1-5.79,2.29,8.33,8.33,0,0,1,0-16.65,8,8,0,0,1,5.65,2.24l2.21-2.21a11,11,0,0,0-7.86-3.15,11.45,11.45,0,1,0,0,22.89,10.47,10.47,0,0,0,8-3.21,11.25,11.25,0,0,0,2.54-9.27Zm19.23,9.58a4.48,4.48,0,1,1,4.16-4.47,4.27,4.27,0,0,1-4.16,4.47Zm0-11.84a7.37,7.37,0,1,0,7.41,7.37A7.27,7.27,0,0,0,944.48,543.42Zm16.16,11.84a4.48,4.48,0,1,1,4.17-4.47A4.27,4.27,0,0,1,960.64,555.26Zm0-11.84a7.37,7.37,0,1,0,7.41,7.37A7.27,7.27,0,0,0,960.64,543.42Z" transform="translate(-840.04 -505.38)"/><path class="cls-3" d="M860.63,561.86l-.13-.12a3.52,3.52,0,0,1-.8-2.44V521.22h0v.25a3.36,3.36,0,0,1,.93-2.56l21.5,21.48Zm-.93-40.65a2.53,2.53,0,0,1,0-.28A2.53,2.53,0,0,0,859.7,521.21Zm0-.29Zm0,0Z" transform="translate(-840.04 -505.38)"/><path class="cls-4" d="M889.3,547.8l.16-.09,8.49-4.82a3.73,3.73,0,0,0,1.62-1.61,3.73,3.73,0,0,1-1.62,1.61l-8.49,4.82-.16.09Zm0-.25-7.17-7.16,7.17-7.16,8.65,4.91a3.2,3.2,0,0,1,1.82,2.25h0a3.24,3.24,0,0,1-1.82,2.25l-8.65,4.91" transform="translate(-840.04 -505.38)"/><path class="cls-5" d="M862.17,562.68a2.24,2.24,0,0,1-1.54-.57h0a2.25,2.25,0,0,0,1.54.57h0Zm0-.26a2.25,2.25,0,0,1-1.54-.56h0l21.5-21.47,7.17,7.16-25.19,14.29a4,4,0,0,1-1.94.58Zm-1.54-.31-.12-.11Z" transform="translate(-840.04 -505.38)"/><path class="cls-6" d="M882.13,540.39l-21.5-21.48a2.22,2.22,0,0,1,1.53-.56,4.07,4.07,0,0,1,2,.58l25.19,14.3-7.17,7.16Zm7.33-7.32-25.35-14.39a4,4,0,0,0-2-.58h0a4,4,0,0,1,1.94.58l25.35,14.39Z" transform="translate(-840.04 -505.38)"/><path class="cls-1" d="M862.33,562.67a4.23,4.23,0,0,0,1.78-.57l25.19-14.3-25.19,14.3a4.09,4.09,0,0,1-1.78.57Zm-1.7-.56Zm-.12-.11h0Z" transform="translate(-840.04 -505.38)"/><path class="cls-7" d="M889.3,547.8l.16-.09Z" transform="translate(-840.04 -505.38)"/><path class="cls-8" d="M862.17,562.68a2.25,2.25,0,0,1-1.54-.57h0l-.12-.11h0l.13-.13a2.25,2.25,0,0,0,1.54.56,4,4,0,0,0,1.94-.58l25.19-14.29.16.16-.16.09-25.19,14.3a4.23,4.23,0,0,1-1.78.57h-.16" transform="translate(-840.04 -505.38)"/><path class="cls-1" d="M860.5,562a3.48,3.48,0,0,1-.8-2.44h0a3.48,3.48,0,0,0,.8,2.44h0" transform="translate(-840.04 -505.38)"/><path class="cls-9" d="M860.5,562l.13-.13h0l-.13.13" transform="translate(-840.04 -505.38)"/><path class="cls-1" d="M899.57,541.28a2,2,0,0,0,.2-.89h0A2,2,0,0,1,899.57,541.28Z" transform="translate(-840.04 -505.38)"/><path class="cls-10" d="M889.46,547.71l-.16-.16,8.65-4.91a3.24,3.24,0,0,0,1.82-2.25,2,2,0,0,1-.2.89,3.73,3.73,0,0,1-1.62,1.61Z" transform="translate(-840.04 -505.38)"/><path class="cls-1" d="M899.77,540.39h0a3,3,0,0,0-1.82-2.51l-8.49-4.81h0l8.49,4.81A3,3,0,0,1,899.77,540.39Z" transform="translate(-840.04 -505.38)"/><path class="cls-11" d="M899.77,540.39a3.2,3.2,0,0,0-1.82-2.25l-8.65-4.91.16-.16h0l8.49,4.81A3,3,0,0,1,899.77,540.39Z" transform="translate(-840.04 -505.38)"/><path class="cls-1" d="M859.7,521.21Zm0-.28h0Zm0,0h0Zm0,0c.1-1.78,1.07-2.81,2.44-2.81a2.21,2.21,0,0,0-1.52.56h0l-.13.12A3.35,3.35,0,0,0,859.71,520.91Z" transform="translate(-840.04 -505.38)"/><path class="cls-12" d="M859.7,521.47v-.25h0a2.53,2.53,0,0,1,0-.28h0a3.33,3.33,0,0,1,.79-2.13l.13.13a3.36,3.36,0,0,0-.93,2.56Zm.93-2.81Z" transform="translate(-840.04 -505.38)"/><path class="cls-13" d="M889.3,533.23l-25.19-14.3a4.07,4.07,0,0,0-2-.58,2.22,2.22,0,0,0-1.53.56l-.13-.13.13-.12h0a2.27,2.27,0,0,1,1.52-.57h0a4,4,0,0,1,2,.59l25.35,14.38h0Z" transform="translate(-840.04 -505.38)"/></svg>