<?xml version="1.0" encoding="utf-8"?>
<!-- Generator: Adobe Illustrator 25.0.1, SVG Export Plug-In . SVG Version: 6.00 Build 0)  -->
<svg version="1.1" id="Calque_1" xmlns="http://www.w3.org/2000/svg" xmlns:xlink="http://www.w3.org/1999/xlink" x="0px" y="0px"
	 viewBox="0 0 500 500" style="enable-background:new 0 0 500 500;" xml:space="preserve">
<style type="text/css">
	.st0{fill:#FCA331;}
	.st1{opacity:0.8;fill:#FFFFFF;enable-background:new    ;}
	.st2{fill:none;stroke:#263238;stroke-width:1.024;stroke-linecap:round;stroke-linejoin:round;}
	.st3{fill:#D6D6D6;}
	.st4{fill:#FFFFFF;stroke:#828282;stroke-width:1.024;stroke-linecap:round;stroke-linejoin:round;}
	.st5{fill:#4A4A4A;}
	.st6{fill:none;stroke:#828282;stroke-width:1.024;stroke-linecap:round;stroke-linejoin:round;}
	.st7{fill:#FFFFFF;stroke:#B2B2B2;stroke-width:1.024;stroke-linecap:round;stroke-linejoin:round;}
	.st8{fill:#FCA331;stroke:#263238;stroke-width:1.024;stroke-linecap:round;stroke-linejoin:round;}
	.st9{fill:#FFFFFF;stroke:#263238;stroke-width:1.024;stroke-linecap:round;stroke-linejoin:round;}
	.st10{fill:#263238;stroke:#263238;stroke-width:1.024;stroke-linecap:round;stroke-linejoin:round;}
	.st11{fill:#263238;}
	.st12{fill:none;stroke:#263238;stroke-width:2.0481;stroke-linecap:round;stroke-linejoin:round;}
	.st13{fill:none;stroke:#263238;stroke-width:0.512;stroke-linecap:round;stroke-linejoin:round;stroke-dasharray:1.024;}
	.st14{fill:#B2B2B2;stroke:#263238;stroke-width:1.024;stroke-linecap:round;stroke-linejoin:round;}
	.st15{fill:none;stroke:#263238;stroke-width:0.512;stroke-linecap:round;stroke-linejoin:round;}
	.st16{fill:none;stroke:#263238;stroke-width:0.512;stroke-linecap:round;stroke-linejoin:round;stroke-dasharray:1.0172,1.0172;}
	.st17{fill:#FFFFFF;}
	.st18{opacity:0.5;}
	.st19{fill:#4A4A4A;stroke:#263238;stroke-width:1.024;stroke-linecap:round;stroke-linejoin:round;}
</style>
<g id="freepik--background-simple--inject-53">
	<path class="st0" d="M445.4,125.2c0,0-29.6-75-118.4-95.7s-140.1,35.5-141.1,73c-1,37.5-2,87.8-19.7,100.7
		c-17.8,12.8-87.8-6.9-122.4,16.8s-66.1,114.5-4.9,181.6s194.4,6.9,237.8,23.7s124.4,40.4,170.7,23.7
		c46.3-16.8,63.2-92.8,35.5-145.1c-27.6-52.3-59.2-70.1-59.2-95.7S459.2,174.5,445.4,125.2z"/>
	<path class="st1" d="M445.4,125.2c0,0-29.6-75-118.4-95.7s-140.1,35.5-141.1,73c-1,37.5-2,87.8-19.7,100.7
		c-17.8,12.8-87.8-6.9-122.4,16.8s-66.1,114.5-4.9,181.6s194.4,6.9,237.8,23.7s124.4,40.4,170.7,23.7
		c46.3-16.8,63.2-92.8,35.5-145.1c-27.6-52.3-59.2-70.1-59.2-95.7S459.2,174.5,445.4,125.2z"/>
</g>
<g id="freepik--Floor--inject-53">
	<line class="st2" x1="6.9" y1="473.6" x2="493.8" y2="473.6"/>
</g>
<g id="freepik--Cages--inject-53">
	<rect x="170.7" y="137.2" class="st3" width="191.3" height="164.9"/>
	<path class="st4" d="M339.7,220.3c0,0,5.9,3.4,6.9,6.9s1.6,7.7,2,8.5c0.4,0.8,3.8,8.5,4,10.5s-2.6,3.2-2.6,3.2s4.8,14.9,5.4,16.9
		c0.4,1.2,0.6,2.5,0.6,3.8c0,0,4.4,2.6,4.4,7.5s0.6,13.3,0.6,13.3s3.6,2.6,2.2,5s-8.3,1.6-8.3,1.6h-1.6c0,0,2.4,1.6-0.6,3.4
		c-3,1.8-11.9,2.4-14.1,1c-2.2-1.4-1-5-1-5s-5.3-1-6.5-1h-3.1c0,0,0,3.1-4,4c-4,1-9.1,1.6-10.3,1c-1.2-0.6-3.4-2.2-2.6-4
		c0.9-1.5,1.9-2.9,3.2-4c0,0-3.2,1.8-2.8-2s3.8-8.3,3.8-8.3s-2.8-19.6-2.4-24.6c0.4-5,0.8-6.7,0.8-7.3c0-0.6,0.2-4.2,0.2-4.2
		s-4.8,3.4-5,1c-0.2-2.4,1.8-7.1,2.8-8.7c1.3-2.3,2.3-4.8,3.2-7.3c0.2-0.8-0.4-6.9,6.7-11.1C328.7,216.2,337.7,218.3,339.7,220.3z"
		/>
	<path class="st5" d="M323.5,237.7c0,0,4.3-0.2,5.2,2c1,2.3-3.3,5.5-5.1,4.1c-1.8-1.4-3.2-3.4-2.3-4.8
		C321.8,238.4,322.6,237.9,323.5,237.7z"/>
	<path class="st5" d="M327.2,249.2c0,0-1.3,2.9-3.1,2c-1-0.6-1.8-1.6-2-2.8l2.3-2.9L327.2,249.2z"/>
	<path class="st6" d="M336.1,250.2c-2,2.1-5.3,2.2-7.6,0.4c-1.5-1.5-2.9-3.2-4.1-5c0,0-3.3,4.8-5.7,4.4c-1.4-0.2-2.6-1.1-3.2-2.4"/>
	<path class="st6" d="M326.9,251.6c-0.2,1.1-1.2,1.9-2.4,1.8c-0.1,0-0.2,0-0.3-0.1c-2.4-0.4-2.8-1.8-2.8-1.8"/>
	<path class="st6" d="M333.5,234.3c0,0,0.1-1,1.7-0.6c1.5,0.5,2.8,1.2,4.1,2"/>
	<path class="st6" d="M323,232.5c0,0-0.2-1.1-1.2-0.7c-1.1,0.6-2,1.3-2.9,2.2"/>
	<path class="st6" d="M314,246.6c-0.4-1.3-0.4-2.7,0-4c0.6-2.4,1.1-3.8,0.6-4.4c-0.5-0.6-1.7,0.8-3.1,3.1c-1.1,1.7-1.7,3.7-1.8,5.7"
		/>
	<path class="st6" d="M346.4,234.3c0,0-0.6,6.1-0.7,7.4c-0.1,1.3-1.3,7.9-0.1,9s3.4-1.2,3.4-1.2"/>
	<path class="st6" d="M342.4,271.5c0,0-1.5,9.1-3.1,13c-1.1,2.6-1.5,5.4-1.2,8.2c-0.1,1.5-0.2,2.9-0.5,4.3"/>
	<path class="st6" d="M320.7,268.7c0,1.4,0.1,2.7,0.4,4c0.5,1.4,1.1,2.8,1.9,4l0.4-1.2c0,0-0.1,2.7,0.7,3.7c0.4,0.5,0.9,0.9,1.3,1.3
		l-0.2-1c0,0,1.7,3.7,2.3,5.4c0.6,1.7-0.1,5.4-0.2,7c0.1,1.4,0.3,2.8,0.9,4.2"/>
	<path class="st6" d="M355.8,271.6c-0.7,3.4-1.6,6.8-2.7,10.1c-1.3,3.5-0.5,8-0.7,9c-0.3,0.9-0.6,1.8-0.7,2.8c0.2,1.2,0.6,2.3,1,3.4
		"/>
	<path class="st6" d="M320.2,254.1c0,0,1.7,3.9,4.8,4.4c2.6,0.2,5.3,0.1,7.9-0.4c-1.3,0.7-2.8,1.2-4.3,1.3c-1.4,0-2.8-0.2-4.1-0.4
		c0.8,0.8,1.7,1.4,2.7,1.8c1.2,0.3,2.4,0.4,3.7,0.4c-1,0.3-2,0.6-3.1,0.7c-0.6,0-1.2,0.1,0.4,0.6c0.9,0.3,1.9,0.4,2.8,0.5"/>
	<polygon class="st4" points="318.3,297.7 291.2,297.7 285.9,288.9 323.6,288.9 	"/>
	<path class="st4" d="M323.8,289.7h-38.1c-0.8,0-1.4-0.6-1.4-1.4l0,0c0-0.8,0.6-1.4,1.4-1.4h38.1c0.8,0,1.4,0.6,1.4,1.4l0,0
		C325.2,289.1,324.6,289.7,323.8,289.7z"/>
	<path class="st4" d="M273,215.1c0,0-4.4-1.3-8.5-2.6c-2.7-0.8-5.4-1-8.2-0.8c0,0,2.8,9,4.9,11c2.1,2,7.7,2.5,7.7,2.5
		c0.2,2.3,0.5,4.6,1,6.9c0.5,1.5-0.5,3.1-4.9,3.1s-18-3.1-30-3.9c-12.1-0.8-18,2.3-21.5,3.6c-3.5,1.3-10-0.3-12.3-3.6
		c-2.3-3.3-1.3-7.4,0.8-10.2s6.9-3.6,4.1-4.1s-10.5-0.5-12.8,7.7s5.1,15.4,7.9,15.4c2.8,0,6.7,3.1,6.7,3.1s-2.8,8-1.3,12.1
		c1.5,4.1,6.1,12.3,5.4,16.2c-0.8,3.9-5.4,7.2-3.8,9.7s2.8,9.4,3.1,14.3c0.3,4.9,3.1,3.9,5.4,3.9s5.9-1,3.9-2.6
		c-1.4-1-3-1.9-4.6-2.6c-1.1-3.7-1.3-7.7-0.5-11.5c1.3-6.1,7.2-11.5,10.2-15.1c3.1-3.6,3.3-9.5,3.3-9.5s7.7-1.5,11.5-0.5
		s9,8.2,14.1,10.2c2.6,1.2,5.4,1.8,8.2,2c0,0,2,4.9,2.8,6.7c0.8,1.8,3.6,15.5,4.3,17.3c0.8,1.8,0.5,4.4,3.3,5.4c2.8,1,6.7,1,6.4-1
		c-0.3-2-4.1-4.4-4.1-4.4s-1.5-11.4-1.5-13.4s1-9.9,1-9.9s7.7-3.7,10.8-7.8s3.1-11.8,3.1-11.8s5.1-6.7,5.9-10.8
		c0.5-2.6,0.7-5.3,0.8-8c0,0,1.8-3.6,1.8-5.9v-2.3c0,0,3.3,0.3,4.4-2s9.7-12.3,8.2-13.9c-1.6-1.6-10.8,4.6-12.3,4.6
		c-1.5,0.1-2.9,0.4-4.4,0.8l-1.5-0.3c-2.4-2.3-5.7-3.3-9-2.6C279.3,211.7,276,213.2,273,215.1z"/>
	<path class="st5" d="M287.4,230.5c-0.9-0.4-3.9-0.8-4.4,0c-0.5,0.8,0.5,4.4,2.6,4.6C287.6,235.4,289.2,231.3,287.4,230.5z"/>
	<path class="st5" d="M280.5,226.7c0,1.3-1.1,2.3-2.3,2.3c-1.3,0-2.3-1.1-2.3-2.3c0-1.3,1-2.3,2.3-2.3
		C279.4,224.4,280.5,225.4,280.5,226.7C280.5,226.7,280.5,226.7,280.5,226.7z"/>
	<path class="st5" d="M294.5,226.7c0,1.3-1,2.3-2.3,2.3c-1.3,0-2.3-1-2.3-2.3c0-1.3,1-2.3,2.3-2.3c0,0,0,0,0,0
		C293.5,224.4,294.5,225.4,294.5,226.7C294.5,226.7,294.5,226.7,294.5,226.7z"/>
	<path class="st6" d="M276.6,233.9c0,0,1.8,2.8,3.9,3.3c2.1,0.5,5.1-1,5.1-1s0.5,1.5,4.1,0.5c2-0.4,3.5-2.1,3.9-4.1"/>
	<path class="st6" d="M263.4,212.8c0,0,8.3,2.5,8.5,5.7c0.2,3.2-0.2,7.8-3,6.9"/>
	<path class="st6" d="M293.9,215.3c0,0,3.4,2,2.8,7.6"/>
	<path class="st6" d="M282.7,237.6c0,0,1.1,2,3,1.8c1.2-0.2,2.3-0.9,3-1.8"/>
	<path class="st4" d="M208.7,283.3c0.1,1.9-0.2,3.8-0.9,5.5c-1.2,3.2-3.9,6.9-2.3,8.3c1.6,1.4,6,1.4,6,1.4l-0.7-5.3
		C210.8,293.1,210,285.9,208.7,283.3z"/>
	<path class="st4" d="M280.1,268.1c-0.8,3.5-1.1,7-0.9,10.6c0.6,6.3,0.8,13.7,1.8,14.2c2.4,1.2,4.6,1.8,3.9,3.4
		c-0.7,1.6-3.3,2-4.4,1.6c-4.1-1.8-6-14-6.4-14.7l-0.1-2.7l1-9.9L280.1,268.1z"/>
	<polygon class="st4" points="211.3,297.7 184.1,297.7 178.9,288.9 216.5,288.9 	"/>
	<path class="st4" d="M216.7,289.7h-38.1c-0.8,0-1.4-0.6-1.4-1.4l0,0c0-0.8,0.6-1.4,1.4-1.4h38.1c0.8,0,1.4,0.6,1.4,1.4l0,0
		C218.1,289.1,217.5,289.7,216.7,289.7z"/>
	<rect x="183.3" y="138.2" class="st7" width="3.4" height="166.6"/>
	<rect x="199.6" y="138.2" class="st7" width="3.4" height="166.6"/>
	<rect x="216" y="138.2" class="st7" width="3.4" height="166.6"/>
	<rect x="232.4" y="138.2" class="st7" width="3.4" height="166.6"/>
	<rect x="248.8" y="138.2" class="st7" width="3.4" height="166.6"/>
	<rect x="265.2" y="138.2" class="st7" width="3.4" height="166.6"/>
	<rect x="281.6" y="138.2" class="st7" width="3.4" height="166.6"/>
	<rect x="298" y="138.2" class="st7" width="3.4" height="166.6"/>
	<rect x="314.3" y="138.2" class="st7" width="3.4" height="166.6"/>
	<rect x="330.7" y="138.2" class="st7" width="3.4" height="166.6"/>
	<rect x="347.1" y="138.2" class="st7" width="3.4" height="166.6"/>
	<path class="st7" d="M362.1,305.2H169.6c-1.1,0-2-0.9-2-2V137.2c0-1.1,0.9-2,2-2h192.5c1.1,0,2,0.9,2,2v165.9
		C364.2,304.3,363.3,305.2,362.1,305.2z M171.7,301.1h188.4V139.3H171.7V301.1z"/>
	<rect x="171.6" y="293.9" class="st7" width="188.6" height="9.2"/>
	<rect x="347.8" y="199.7" class="st7" width="15" height="24.6"/>
	<rect x="95.8" y="306.5" class="st3" width="191.3" height="164.9"/>
	<rect x="109.5" y="306.9" class="st7" width="3.4" height="166.6"/>
	<rect x="125.9" y="306.9" class="st7" width="3.4" height="166.6"/>
	<rect x="142.3" y="306.9" class="st7" width="3.4" height="166.6"/>
	<rect x="158.7" y="306.9" class="st7" width="3.4" height="166.6"/>
	<rect x="175.1" y="306.9" class="st7" width="3.4" height="166.6"/>
	<rect x="191.5" y="306.9" class="st7" width="3.4" height="166.6"/>
	<rect x="207.8" y="306.9" class="st7" width="3.4" height="166.6"/>
	<rect x="224.2" y="306.9" class="st7" width="3.4" height="166.6"/>
	<rect x="240.6" y="306.9" class="st7" width="3.4" height="166.6"/>
	<rect x="257" y="306.9" class="st7" width="3.4" height="166.6"/>
	<rect x="273.4" y="306.9" class="st7" width="3.4" height="166.6"/>
	<path class="st7" d="M288.4,473.8H95.9c-1.1,0-2-0.9-2-2V305.8c0-1.1,0.9-2,2-2h192.5c1.1,0,2,0.9,2,2v165.9
		C290.4,472.9,289.5,473.8,288.4,473.8z M97.9,469.7h188.4V307.9H97.9V469.7z"/>
	<rect x="97.9" y="462.5" class="st7" width="188.6" height="9.2"/>
	<rect x="274.1" y="368.3" class="st7" width="15" height="24.6"/>
	<rect x="294" y="306.5" class="st3" width="191.3" height="164.9"/>
	<rect x="307.1" y="306.9" class="st7" width="3.4" height="166.6"/>
	<rect x="323.4" y="306.9" class="st7" width="3.4" height="166.6"/>
	<rect x="339.8" y="306.9" class="st7" width="3.4" height="166.6"/>
	<rect x="356.2" y="306.9" class="st7" width="3.4" height="166.6"/>
	<rect x="372.6" y="306.9" class="st7" width="3.4" height="166.6"/>
	<rect x="389" y="306.9" class="st7" width="3.4" height="166.6"/>
	<rect x="405.4" y="306.9" class="st7" width="3.4" height="166.6"/>
	<rect x="421.7" y="306.9" class="st7" width="3.4" height="166.6"/>
	<rect x="438.1" y="306.9" class="st7" width="3.4" height="166.6"/>
	<rect x="454.5" y="306.9" class="st7" width="3.4" height="166.6"/>
	<rect x="470.9" y="306.9" class="st7" width="3.4" height="166.6"/>
	<path class="st7" d="M485.9,473.8H293.4c-1.1,0-2-0.9-2-2V305.8c0-1.1,0.9-2,2-2h192.5c1.1,0,2,0.9,2,2v165.9
		C488,472.9,487.1,473.8,485.9,473.8z M295.5,469.7h188.4V307.9H295.5V469.7z"/>
	<rect x="295.4" y="462.5" class="st7" width="188.6" height="9.2"/>
	<rect x="471.6" y="368.3" class="st7" width="15" height="24.6"/>
</g>
<g id="freepik--character-2--inject-53">
	<path class="st8" d="M392.8,443.5c0,0-4.5,7.4-11.1,11.9s-12.6,7.4-14.5,7.8c-1.9,0.4-7.4,0.7-5.9,5.2c1.5,4.5,6.3,5.6,11.9,5.2
		c5.6-0.4,51.3,0,51.3,0c0.8-2.7,1-5.4,0.7-8.2c-0.4-5.2-5.6-18.2-5.6-18.2L392.8,443.5z"/>
	<path class="st9" d="M363.4,163.1c0,0-8.8,25.1-8.2,28.1c0.6,2.9,13.3,37.5,13.3,37.5l-5.4,5.4l1.2,6.5c0,0-2.9,2.3-1.2,5.3
		s9.3,1.2,9.3,1.2s7.9-31.2,7.9-33c0-1.8-0.6-50.3-0.6-50.3L363.4,163.1z"/>
	<path class="st10" d="M366.1,230.6c0,0,1.5,59.8,3.7,73.5s5.9,58.4,8.9,72.8c3,14.4,14.1,56.5,14.1,56.5c-1.3,1.6-2.1,3.5-2.2,5.6
		c0.2,3,0.5,6,1.1,8.9c0,0,5.6,2.6,16.7,1.9c11.1-0.7,13.3,0.2,13.3,0.2s0.8-8.3-0.7-11.3c-1.5-2.9-5.6-6.3-5.6-12.6
		c0-6.3-6.3-47.9-6.3-50.2v-26c0,0,17.5,65.4,17.8,67.6c0.4,2.2-4.1,4.8-4.5,8.2c-0.4,3.4,3.7,20.8,3.7,20.8s6.7,2.6,11.9,2.6
		s17.1-1.9,17.1-1.9s-4.4-19.7-4.4-24.1c0-4.5,0.4-32-0.7-43.5c-1.1-11.5-8.2-40.1-8.2-43.5s-2.6-59.4-2.6-62.4c0-3,3-15.6,3.3-24.9
		c0.2-5.8,0.1-11.6-0.4-17.4l-74.3-4.8L366.1,230.6z"/>
	<path class="st8" d="M382.8,119c0,0-5.3,3.7-7,9c-1.7,5.3-16.6,39.7-16.6,39.7l8.7,6.5l-6.1,56.3c1.8,1.9,4.4,2.9,7,2.8
		c4.8,0,14.6,4.5,34.4,4.8c19.7,0.3,29.9,1.4,33.5,0.3c3.7-1.1,4.2-0.8,7.6-2.8c3.4-2,0.3-8.4-1.1-14.3c-1.4-5.9-0.3-62.5-3.1-74.7
		s-9.3-31.6-19.2-37.2c-6.4-3.7-13.7-5.5-21.1-5.1C397.2,104.3,382.8,119,382.8,119z"/>
	<ellipse class="st11" cx="394.7" cy="158" rx="6.8" ry="8.9"/>
	<path class="st11" d="M390.8,145.8c0-1.2-1-2.3-2.3-2.3c-1.2,0-2.3,1-2.3,2.3c0,1.2,1,2.3,2.3,2.3C389.8,148,390.8,147,390.8,145.8
		C390.8,145.8,390.8,145.8,390.8,145.8z"/>
	<path class="st11" d="M393.6,144.4c1.2,0,2.3-1,2.3-2.3c0-1.2-1-2.3-2.3-2.3c-1.2,0-2.3,1-2.3,2.3
		C391.3,143.4,392.3,144.4,393.6,144.4C393.6,144.4,393.6,144.4,393.6,144.4z"/>
	<path class="st11" d="M399,147.5c1.2,0,2.3-1,2.3-2.3c0-1.2-1-2.3-2.3-2.3c-1.2,0-2.3,1-2.3,2.3C396.7,146.5,397.8,147.5,399,147.5
		z"/>
	<line class="st2" x1="367.9" y1="174.2" x2="374.8" y2="134.4"/>
	<polygon class="st11" points="369.1,166.9 361.4,162.2 359.2,167.7 367.9,175.4 	"/>
	<path class="st11" d="M411.5,105.6c-3.2-0.8-6.5-1.3-9.9-1.2c-1.5,0.5-3.1,1-4.6,1.6c-5,3.8-14.1,13.1-14.1,13.1
		c-0.6,0.4-1.1,0.9-1.7,1.4c-0.8,2.5-2.9,8.7-2.9,11.8c0,4,5.4,2.2,8.9-2.2c3.5-4.5,10.7-15.9,17.1-19.3
		C407.9,108.6,410.3,107,411.5,105.6z"/>
	<path class="st9" d="M339.7,75.3c0,0,0,13.2,1.7,14.7c1.7,1.4,4.2,1.4,4.2,3.7s-2.5,6.1-2.5,7.6s1.4,2.3,4,2.5
		c1.3,0.2,2.6,0.3,3.9,0.3c0,0,5.3,9.9,7,13.5c1.7,3.7,4.2,4.2,9.3,2.8c5.1-1.4,7.3-3.7,7.3-3.7s6.8,2,6.8,5.1c0,3.1-3.1,10.4,0.3,9
		s6.5-5.6,13.5-14.3s11.3-11,11.3-11s-8.4-5.6-11.3-9.3c-2.8-3.7-3.4-3.7-3.9-8.2c-0.6-4.5-0.8-17.5-7-20.6
		c-6.2-3.1-24.5-5.1-30.1-3.9c-5.6,1.2-10.7,9.3-11.6,9.8S339.7,75.3,339.7,75.3z"/>
	<path class="st11" d="M352.8,91.7c0.7,1,0.9,2,0.5,2.4s-1.4-0.3-2.1-1.3c-0.7-1-0.9-2-0.5-2.4C351.2,90,352.1,90.6,352.8,91.7z"/>
	<path class="st2" d="M353.8,108.3c0,0,6.5-2.5,8.7-5.1s2-4.2,2-4.2"/>
	<line class="st2" x1="362.8" y1="99.3" x2="367.1" y2="99.3"/>
	<path class="st2" d="M357.5,89.9c1.8,3.5,1,7.4-1.7,8.7c-2.7,1.4-6.3-0.3-8-3.8s-1-7.4,1.7-8.7S355.7,86.4,357.5,89.9z"/>
	<path class="st2" d="M344.2,86c1.6-2.1,4.2-3.2,6.8-2.8"/>
	<line class="st2" x1="357.5" y1="89.9" x2="372.4" y2="82.6"/>
	<path class="st10" d="M374.7,116.7c2.5-4.3,4.7-8.9,6.5-13.6v17.2L374.7,116.7z"/>
	<path class="st10" d="M354.7,48c0,0-11-8.5-19.7-4s-10.1,15.2-5.1,15.8s6.5,1.4,6.5,1.4s-9,1.1-11.6,7c-2.5,5.9,5.1,16.6,10.7,14.1
		c5.6-2.5,5.9-5.4,5.9-5.4s5.6-4.2,7.9-6.1c2.3-1.9,5.9-3.9,7.3-2.5s-3.7,8.7-2,11.8s4.5,3.1,7.6,2.8c3.1-0.3,4.8-0.3,5.6,1.7
		c0.8,2,3.1,3.7,4.8,3.1c1.7-0.6,6.2-1.4,7.3,1.1c1.1,2.5,0,6.8,2.3,7.9c2.3,1.1,12.1,1.7,13-0.6c0.8-2.3,4.8-24.8,1.4-36.1
		S378,43,371,42.7C364,42.4,355.5,44.3,354.7,48z"/>
	<path class="st9" d="M371.9,89.8c0-1.7,2.3-11.8,8.3-12.1c5.9-0.3,4.8,16.1,3.7,18.3c-1.1,2.3-3.9,0.8-3.9,0.8"/>
	<path class="st9" d="M388.4,450.2l10.8,4.1c0,0,5.9-12.3,0-14.9c-5.9-2.6-10.4-0.7-10.8,1.9C388.2,444.2,388.2,447.2,388.4,450.2z"
		/>
	<path class="st12" d="M388.6,450.2c0,0,8.5,1.3,12,4.8"/>
	<path class="st12" d="M384.3,453.1c0,0,8.5,1.3,12,4.8"/>
	<path class="st12" d="M380,455.9c0,0,8.5,1.3,12,4.8"/>
	<path class="st9" d="M424.4,473.6c0.8-2.7,1-5.4,0.7-8.2c-0.1-0.7-0.2-1.4-0.3-2c-21.2,5.1-48.7,5.1-48.7,5.1
		c-0.9-1.4-1.9-2.8-3-4.1c-0.8-1-2.5-1.5-4.2-1.7c-0.6,0.2-1.1,0.4-1.7,0.6c-1.9,0.4-7.4,0.7-5.9,5.2c1.5,4.5,6.3,5.6,11.9,5.2
		C378.7,473.2,424.4,473.6,424.4,473.6z"/>
	<path class="st8" d="M428.5,443.5c0,0-4.5,7.4-11.1,11.9s-12.6,7.4-14.5,7.8c-1.9,0.4-7.4,0.7-5.9,5.2c1.5,4.5,6.3,5.6,11.9,5.2
		c5.6-0.4,51.3,0,51.3,0c0.8-2.7,1-5.4,0.7-8.2c-0.4-5.2-5.6-18.2-5.6-18.2L428.5,443.5z"/>
	<path class="st9" d="M424,450.2l10.8,4.1c0,0,5.9-12.3,0-14.9c-5.9-2.6-10.4-0.7-10.8,1.9C423.8,444.2,423.8,447.2,424,450.2z"/>
	<path class="st9" d="M460,473.6c0.8-2.7,1-5.4,0.7-8.2c-0.1-0.7-0.2-1.4-0.3-2c-21.2,5.1-48.7,5.1-48.7,5.1c-0.9-1.4-1.9-2.8-3-4.1
		c-0.8-1-2.5-1.5-4.2-1.7c-0.6,0.2-1.1,0.4-1.7,0.6c-1.9,0.4-7.4,0.7-5.9,5.2c1.5,4.5,6.3,5.6,11.9,5.2
		C414.4,473.2,460,473.6,460,473.6z"/>
	<path class="st9" d="M469.5,190c-0.6-4.6-22.7-39.7-22.7-39.7l-17.1,17l12.8,22.7l-25.3,43.2c-0.3,0.2-6.9,5.4-7.7,5.7
		c-0.7,0.2-0.7,4-0.5,5c0.2,1,0.3,10.4,0.3,10.4s2.7,2,4.2,2s6.7,0,8.7-0.2c2-0.2,4.5-3.5,4.5-5.5c0-2-2.5-7.9-2.5-7.9l0.7-2.8
		C436.3,228.5,470,193.8,469.5,190z"/>
	<line class="st2" x1="442.4" y1="190" x2="446.7" y2="196.5"/>
	<polygon class="st11" points="450.1,154.4 434.9,176 429.6,167.3 	"/>
	<path class="st9" d="M424.8,239.8c0,0,0.2,8.3-2,9.8c-2.2,1.5-4,2.2-5.7,2.2"/>
	<path class="st8" d="M404.1,136.6l21.9,39l27.4-25.4c0,0-29-47.2-38.4-42.9"/>
	<polygon class="st11" points="421.6,168.3 449.8,143.7 453.4,150.2 426,175.6 	"/>
	<path class="st12" d="M424,450.2c0,0,8.5,1.3,12,4.8"/>
	<path class="st12" d="M419.7,453.1c0,0,8.5,1.3,12,4.8"/>
	<path class="st12" d="M415.4,455.9c0,0,8.5,1.3,12,4.8"/>
</g>
<g id="freepik--character-1--inject-53">
	<polygon class="st4" points="338.8,465.8 311.6,465.8 306.4,456.9 344,456.9 	"/>
	<path class="st4" d="M344.2,457.7h-38.1c-0.8,0-1.4-0.6-1.4-1.4l0,0c0-0.8,0.6-1.4,1.4-1.4h38.1c0.8,0,1.4,0.6,1.4,1.4l0,0
		C345.6,457.1,345,457.7,344.2,457.7z"/>
	<path class="st10" d="M162.4,258.2c0,0-6.5,13.1-8.9,13.5c-2.4,0.4-12.4-5-19.9-1.3s-8.7,17.2-7.3,21.7c1.4,4.5,1.7,10.9-1.3,12
		c-3,1-9.8-0.5-11.4,4.5s1.8,14.3,10.5,17.3s18.3-14.6,25.3-16.4s8.4,11,14.8,9.2c6.3-1.8,14-22.6,8.4-31.8
		c-5.6-9.2-2.4-26.5-0.1-30.3S166.5,254,162.4,258.2z"/>
	<path class="st8" d="M166.5,381.2c0,0,27-4.2,40.8,1.9c13.7,6.1,20.8,14.7,21,20.2c0,5.9-2.4,11.5-6.7,15.6
		c-4.1,3.9-26.4,12.1-34.8,14.9c-8.4,2.8-15.6,5.9-15.6,5.9l-10.4-14.8l9.7-9.9l-24.6-2c0,0-14.7-14.3-10.8-24.9
		C138.8,377.4,162.4,378,166.5,381.2z"/>
	<path class="st13" d="M157,410.3c0,0,23.1,4.6,32.6,4.6c7,0,14.1-0.5,21-1.3"/>
	<path class="st2" d="M157.9,408.3c0,0,27.8,4.7,37.4,4.9c6.6,0.2,13.2-0.2,19.8-1"/>
	<path class="st8" d="M119.6,436.1c0,0-5.7,1.5-5.1,9.7c0.4,5.5,2.4,13,2.6,18.9c0.2,5.8,2.6,9.7,7.5,10.7c4.9,1,11.1,1.4,15.5-1.3
		c4.5-2.6,0.2-3.4-2.4-6c-2.6-2.6-1.2-13.1-1.2-13.1s6,4,8.7,10.3c2.7,6.3,9.9,9.7,16.7,11.2s10.5,2,13.8,1.6
		c3.3-0.5-0.5-10.7-10.2-17.9c-9.8-7.2-34.2-21.2-38.3-24.1C124.9,434.4,121.8,434.4,119.6,436.1z"/>
	<path class="st10" d="M119.6,436.1c0,0-5.7,1.5-5.1,9.7c0.4,5.5,2.4,13,2.6,18.9c0.2,5.8,2.6,9.7,7.5,10.7c4.9,1,11.1,1.4,15.5-1.3
		c4.5-2.6,0.2-3.4-2.4-6c-2.6-2.6-1.2-13.1-1.2-13.1s0.3,0.2,0.9,0.7c0.1-3.1,2.6-6.5,2.6-6.5l-1.2-5.9c-5.6-3.3-10.1-6.1-11.7-7.2
		C124.9,434.4,121.8,434.4,119.6,436.1z"/>
	<path class="st14" d="M140.2,474.1c1.7-1,2.1-1.7,1.9-2.4c-3,1.4-6.3,2.2-9.6,2.4c-6.6,0.3-11,0-11.1-3.9s-3.4-17.8-3.6-23.6
		c-0.2-3.3,0.9-6.5,3.1-8.9l1.2-2.7c-0.8,0.2-1.6,0.6-2.3,1.1c0,0-5.7,1.5-5.1,9.7c0.4,5.5,2.4,13,2.6,18.9
		c0.2,5.8,2.6,9.7,7.5,10.7C129.5,476.3,135.7,476.7,140.2,474.1z"/>
	<path class="st8" d="M164.3,394.4l-9.6,18.8c0,0,1.9,2.7,3.6,4.4c1.6,1.8,29,27.5,33.6,35c4.6,7.4,4.7,17.2-1,20.5
		c-5.7,3.3-13.8,7-20.9,4c-7.2-3.1-12-8.4-17.7-13c-5.7-4.6-34.6-27-40.5-32.2c-9.5-8.5-19-16.3-22.5-26.6c-2.1-6-2.5-12.4-1.1-18.6
		c0,0,3-9.3,11-13.6c8.1-4.3,35.6,1.8,41.1,4.1c5.6,2.3,7.4,2.1,7.4,2.1"/>
	<path class="st2" d="M167,469.5c-4.2-3.8-59.4-51.6-64.6-57.4c-5.2-5.8-3.1-14.4-3.1-14.4"/>
	<path class="st15" d="M165.1,470.6l-0.4-0.3"/>
	<path class="st16" d="M164,469.6c-9-7.9-58.5-50.9-63.5-56.4c-4.2-4.6-3.7-11-3.3-13.4"/>
	<path class="st15" d="M97.2,399.3c0-0.2,0.1-0.3,0.1-0.5"/>
	<path class="st2" d="M128.3,405.5c7.4,0.4,16.5,1.7,20.7,5.7"/>
	<path class="st2" d="M117.2,405.5c0,0,2.4-0.2,6-0.1"/>
	<path class="st2" d="M170.4,415c0,0,20.9,3.2,30.8,0.7"/>
	<path class="st9" d="M194.4,307.8c0,0,2.9,1.2,6.2,7c3.3,5.8,15.7,31.1,15.7,31.1l36.1,9.1v6.6c0,0-26.1,5-34,6.2s-23.2,0.8-29.4,0
		c-3.9-0.6-7.5-2.3-10.4-5l7.9-54.7L194.4,307.8z"/>
	<path class="st9" d="M169.6,311.4c0,0-3.8-9.9-14.9-11.6c-11.1-1.7-19.2,0.5-26.1,11.5s-8.5,29.7-9.7,31.3s-21,22.3-27,33.5
		c-6,11.3-3.7,13.6-3.7,13.6s9.6,15.4,36.9,12.8c14-1.4,27.3-6.6,38.5-15.1c3.7-3,7.3-6.2,10.6-9.6c0,0,5.3-11.5,11.3-15.2
		c5.9-3.6,12.9-12.8,12.2-22.2s1.2-14.4-2.2-22.5c-3.4-8.1-21.9-11.9-22.8-11.9C171.8,306.1,169.6,311.4,169.6,311.4z"/>
	<path class="st2" d="M159.3,384.6c0,0-18.4,7.2-31.5,6.2"/>
	<path class="st2" d="M132.3,381.8c7.3,1.1,16.9,1.9,23.5-0.4"/>
	<path class="st2" d="M122.1,379.7c0,0,2,0.5,5.1,1.1"/>
	<polygon class="st8" points="173.2,308.2 167.3,366 186.9,366.2 184.1,315.3 	"/>
	<path class="st10" d="M204.8,273.8c0,0-1.7,12,1.7,16.6c3.3,4.6,7.9,11.6,5.8,17.8c-2.1,6.2-9.7,10.2-7.2,14.9
		c2.5,4.8,4.1,9.8,2,12.8s-7.8,3.4-7.8,3.4s3.7-9.1-0.4-14.1c-4.1-5-10.7-15.9-7.2-22.1c2.1-3.5,3.4-7.5,3.9-11.5"/>
	<path class="st8" d="M199.2,296.9c0,0-0.7,16-5.3,19.4s-20.2-0.7-23.1-8.1c-2.9-7.4,4.1-17.3,6.2-17.8c2.1-0.5,13.7,7.5,16.4,6.8
		C195.3,296.8,197.2,296.7,199.2,296.9z"/>
	<path class="st14" d="M207.2,258.5c0,0-2.2,13-1.1,16.5c1,3.5,0.8,10.5-2.3,16c-3.1,5.5-9.3,11.5-12,12.2
		c-2.7,0.7-5.5,1.1-12.8-3.5c-7.4-4.7-16.8-19.7-19.9-24.4c-3.1-4.7,4.1-19,7.9-25.3c3.8-6.4,5.1-6.2,14-6.1
		c8.9,0.2,18.3,3.4,21,4.3C204.5,249,207.5,250.8,207.2,258.5z"/>
	<path class="st2" d="M197.5,269.8c0,0-1.7,4.9-1.1,6.3c0.6,1.4,3.2,4,0,6.9c-3.2,2.9-7.1-0.5-7.4-1.4"/>
	<path class="st2" d="M183.4,285c0,0,5.2,4.2,9.3,2.9"/>
	<path class="st12" d="M178.4,275.5c0,0,5.3-2.4,8.1-1.2"/>
	<path class="st12" d="M198.5,272.3c0,0,2.8-2,4.9-0.9"/>
	<path class="st12" d="M176.5,271.3c0,0,3.6-5,9.6-5.7"/>
	<path class="st12" d="M198.6,261.8c0,0,4.5,1.5,5.2,4.2"/>
	<path class="st10" d="M171.3,253.7l0.9,10.8c8.1,1.7,16.5,1.3,24.5-1c12.6-3.9,15.6-6.3,15.6-6.3s-5.5-17.5-8.9-23.8
		c-3.4-6.2-10-10.5-20.8-11.3c-10.8-0.7-25,4.8-31.3,13.1c-6.3,8.3-9.8,16.9-10,24.2c-0.1,7.3,0.8,29.2,3.6,36.3s14.3,8.2,14,12.6
		c-0.3,4.4-11.3,15.8-7.2,22.8c4.1,7,23.1,2.2,23.8,4.9s-3.1,7.4,2.1,5.4c5.2-2,7.4-9.7,3.4-12.4c-4-2.7-9.2-5.3-8.7-7.2
		c0.6-1.9,9.9-13.3,8-19.1c-1.9-5.8-14.3-24.3-16-27.9c-1.7-3.6,2-6.7,4-10.1C170.3,261.2,171.3,253.7,171.3,253.7z"/>
	<path class="st0" d="M335.3,463.9c-0.7-2.8-3.7-11.9-4-12.6c-0.2-0.7-1.2-15.8-2.8-20c-1.6-4.2-4-9.3-4-9.3l3,1.9
		c0,0-7.7-10-10-13.3c-2.3-3.3-8.1-14.7-16.5-22.8c-8.4-8.1-18.4-20-25.8-26.1c-5-4.3-9.3-9.3-12.8-14.9l3.7-0.7l-4.6-5.4l4.9,0.7
		l-2.8-5.6l7.7,2.3l-2.6-7.7l-5.3-5.8l5.8,2.6l-7.5-8.6l-2.3-4l6.3,2c0,0-3.5-4.9-3.5-5.6c-0.5-1.9-1.1-3.8-1.9-5.6l1.6,0.7v-3.1
		c0,0,3.1-7.4,3.1-11.4c0-4,0.2-6.5,0.5-9.8c0.2-3.3-4.6-4-7.9-2.3c-3.3,1.6-7.4,6.5-8.6,7.2l-1.2,0.7l-1.9-0.5l-0.7,3.5l-1.9-2
		l-0.7,4.2c0,0-9.8-4-18.4-1.2v-5.3l-1.2,1.2c-3.1-3.5-6.7-6.5-10.7-8.8c-6.3-3.5-10.9,2.3-10.9,8.2c0.3,5.2,1.7,10.3,4.2,14.9
		c0.6,0.9,1.5,1.6,2.6,1.9l-3.7,1.6l3.1,1.2l-2,2.8l3.5-0.2l-2.6,6.3l1.6-0.5c0,0-2.6,7.4-3.1,8.4c-0.5,0.9-5.8,11.8-5.8,11.8
		s3.5-3.7,3.5-3s-0.7,5.8-0.7,5.8l5.1-1.9l-0.7,2.6l1.9-0.7l-1.2,3.3l3.5,0.2l-0.5,1.6l2.6,1.6c0,0,2.6,3.3,2.6,5.8
		c0,1.9-3.8,7.5-5.7,10.1l-1.1,1.5l3.3-0.9c0,0-5.1,8.6-5.6,10.9c-0.3,1.8-0.5,3.7-0.5,5.6l2-2.5c0,0-0.7,6.3-0.7,8.8
		c0,2.6,1.4,9.5,1.4,11.2c0,1.6,2.8,0.2,2.8,0.2s3.7,10.5,4.9,12.3c0.9,1.4,2,2.6,3.3,3.7c0,0,1.2,12.6,1.9,18.8s-3.5,27.9-4.2,30.7
		c-0.7,2.8-3.7,6.3-5.1,7c-1.4,0.7-7.2-1.2-9.5,1.9c-2.4,3-0.9,4.7,0,5.1c0.9,0.5,15.6,0,16.8,0h33.4c1.8,0,3.6-0.3,5.4-0.7
		c0,0,41.2-0.5,42.6-0.5s24.2-0.2,26.1-0.5l7.7-0.9l-0.7-7.7C333.5,464.6,336,466.7,335.3,463.9z M247.6,452l-11.2,4l9.8-1.6
		c0,0-2,0.9-8.1,3.5c-6.1,2.6-10.5,5.1-10.5,4.4c0.5-3.4,1.5-6.8,2.8-10c2-5.6,5.8-26.8,5.8-26.8c0.6,0.8,1.3,1.5,2.1,2.1
		c0.9,0.7,10.9,5.8,10.9,5.8L247.6,452z"/>
	<path class="st17" d="M273.7,403.4l2.2,5.6l4.3,6.8v-3.4l5.9,8c0,0,2.1,0.8,2.1,2.1l4.6,1.5c0,0-14.1,4.1-18.1,12.3
		c-4.1,8.2-2.8,10.4-2.8,10.4l2.3-1.9c-0.5,2.3-0.5,4.6,0.1,6.9c0.9,3.2,5.8,8.4,5.8,8.4l8.3,4.7l-8.2,4.5l-2.7,4.5l-19.5,0.2
		c0,0-6.4-5.6-6.4-11.1s2.3-11.3,3.2-20.9c0.9-9.5,8.6-21.8,11.3-26.8c2.7-5,1.4-12.7,1.4-12.7L273.7,403.4z"/>
	<path class="st17" d="M258.2,324.9c-3.4-4.6-11.8-4.6-11.8-8.4s-0.8-11-5.1-15.6c-4.3-4.6-9.3,3-11.8,4.6c-2.5,1.7-4.6-4.6-6.8-4.6
		c-2.1,0-5.1,3.8-5.1,3.8l-1.9,7.4l-5.4,9.5c0,0-1.4,5-2.7,6.3c-1,1-2.9,6.3-3.9,9.3l3.5-1.3l-0.7,2.6l1.9-0.7l-1.2,3.3l3.5,0.2
		l-0.5,1.6l2.6,1.6c0,0,2.6,3.3,2.6,5.8c0,1.9-3.8,7.5-5.7,10.1l-1,1.4l3.3-0.9c0,0-5.1,8.6-5.6,10.9c-0.3,1.8-0.5,3.7-0.5,5.6
		l2-2.5c0,0-0.7,6.3-0.7,8.8c0,2.6,1.4,9.5,1.4,11.2c0,1.6,2.8,0.2,2.8,0.2s3.7,10.5,4.9,12.3c0.9,1.4,2,2.6,3.3,3.7
		c0,0,1.2,12.6,1.9,18.8c0.1,3,0,5.9-0.5,8.8c0.4,0,0.8-0.1,1.2-0.4c6.3-4.5,8.6-10.4,8.6-11.8c0-1.4,1.8-5,1.8-5s13.1,9.1,14.5,9.1
		c1.4,0,1.8-3.2,1.8-3.2l-1.3-13.6l1-3.8c0,0-0.4-1.3-0.8-2.5c-0.3-1.8-0.5-3.7-0.4-5.5c-0.1-0.6,0.1-1.2,0.4-1.7v-6.3
		c0,0,2.5,2.5,3.8,1.3c1.3-1.3,0-5.9-0.8-10.1c-0.8-4.2,4.6,3.4,5.5,2.5c0.8-0.8-10-17.3-10-17.3s4.5-1.8,4.5-4.1
		c0-2.3-6.9-16.2-6.3-18.2c0.5-1.9,6.8-4.5,10-2.3s0.9-5-0.5-5.9c-1.4-0.9,1.8-2.7,1.8-2.7l-2.7-5l7.7-1.4L258.2,324.9z"/>
	<path class="st12" d="M216.1,316.5c0,0,2.7-3.6,6.8,0"/>
	<path class="st12" d="M231.6,318.8c2.6-1.7,6.1-1,7.8,1.6c0.1,0.2,0.3,0.4,0.4,0.6"/>
	<g class="st18">
		<path class="st17" d="M205,296.8c0,0,2,5.4,3.5,5.8c1.4,0.5,2.6-0.2,3.7-0.5c1.2-0.2,0.5-0.9,0.5-0.9l-1.4-2.1
			c0,0,2.8,0.5,3.5,0.5c0.7,0,0.9-4.2,0.9-4.2l1.2,0.9l1.2-3.7l1.6,0.7l0.5-2.8l2,1.4c0.1-1.3,0-2.5-0.5-3.7
			c-0.7-1.7-4.8-6.3-5.3-6.9c-1.3-1-2.6-1.8-4-2.6c-6.3-3.5-10.9,2.3-10.9,8.2c0.1,2.6,0.5,5.2,1.2,7.6
			C203.5,295.3,204.2,296.1,205,296.8z"/>
		<path class="st17" d="M262.3,294.3c0.2-6.7,0.4-9.4,0.9-10.7c0.6-1.2,0.9-2.5,1-3.9c-1.2-0.6-2.6-0.9-4-0.7l-6.6,5.7
			c0,0-4.4,3.7-5.4,5.6c-0.6,1.7-0.9,3.5-0.9,5.4l2.8-0.7l-1.2,3.5l3.1-0.9l-0.7,3.3l2.8,0.7l-0.7,1.6c0.7,0.9,2,1.1,2.9,0.4
			c0.1-0.1,0.3-0.2,0.4-0.4C258.3,301.2,262,301,262.3,294.3z"/>
	</g>
	<path class="st2" d="M248.2,291.7l-0.9,3.9l2.6,1.2v3h3.4l0.1,3.3c0,0,5.4-0.1,8-4.6"/>
	<polyline class="st2" points="222.3,291.9 218.1,292.6 216.9,296.4 214.5,296.9 215.1,301.1 211.3,299.1 210.1,302.3 	"/>
	<path class="st2" d="M335.3,463.9c-0.7-2.8-3.7-11.9-4-12.6c-0.2-0.7-1.2-15.8-2.8-20c-1.6-4.2-4-9.3-4-9.3l3,1.9
		c0,0-7.7-10-10-13.3c-2.3-3.3-8.1-14.7-16.5-22.8c-8.4-8.1-18.4-20-25.8-26.1c-5-4.3-9.3-9.3-12.8-14.9l3.7-0.7l-4.6-5.4l4.9,0.7
		l-2.8-5.6l7.7,2.3l-2.6-7.7l-5.3-5.8l5.8,2.6l-7.5-8.6l-2.3-4l6.3,2c0,0-3.5-4.9-3.5-5.6c-0.5-1.9-1.1-3.8-1.9-5.6l1.6,0.7v-3.1
		c0,0,3.1-7.4,3.1-11.4c0-4,0.2-6.5,0.5-9.8c0.2-3.3-4.6-4-7.9-2.3c-3.3,1.6-7.4,6.5-8.6,7.2l-1.2,0.7l-1.9-0.5l-0.7,3.5l-1.9-2
		l-0.7,4.2c0,0-9.8-4-18.4-1.2v-5.3l-1.2,1.2c-3.1-3.5-6.7-6.5-10.7-8.8c-6.3-3.5-10.9,2.3-10.9,8.2c0.3,5.2,1.7,10.3,4.2,14.9
		c0.6,0.9,1.5,1.6,2.6,1.9l-3.7,1.6l3.1,1.2l-2,2.8l3.5-0.2l-2.6,6.3l1.6-0.5c0,0-2.6,7.4-3.1,8.4c-0.5,0.9-5.8,11.8-5.8,11.8
		s3.5-3.7,3.5-3s-0.7,5.8-0.7,5.8l5.1-1.9l-0.7,2.6l1.9-0.7l-1.2,3.3l3.5,0.2l-0.5,1.6l2.6,1.6c0,0,2.6,3.3,2.6,5.8
		c0,1.9-3.8,7.5-5.7,10.1l-1.1,1.5l3.3-0.9c0,0-5.1,8.6-5.6,10.9c-0.3,1.8-0.5,3.7-0.5,5.6l2-2.5c0,0-0.7,6.3-0.7,8.8
		c0,2.6,1.4,9.5,1.4,11.2c0,1.6,2.8,0.2,2.8,0.2s3.7,10.5,4.9,12.3c0.9,1.4,2,2.6,3.3,3.7c0,0,1.2,12.6,1.9,18.8s-3.5,27.9-4.2,30.7
		c-0.7,2.8-3.7,6.3-5.1,7c-1.4,0.7-7.2-1.2-9.5,1.9c-2.4,3-0.9,4.7,0,5.1c0.9,0.5,15.6,0,16.8,0h33.4c1.8,0,3.6-0.3,5.4-0.7
		c0,0,41.2-0.5,42.6-0.5s24.2-0.2,26.1-0.5l7.7-0.9l-0.7-7.7C333.5,464.6,336,466.7,335.3,463.9z M247.6,452l-11.2,4l9.8-1.6
		c0,0-2,0.9-8.1,3.5c-6.1,2.6-10.5,5.1-10.5,4.4c0.5-3.4,1.5-6.8,2.8-10c2-5.6,5.8-26.8,5.8-26.8c0.6,0.8,1.3,1.5,2.1,2.1
		c0.9,0.7,10.9,5.8,10.9,5.8L247.6,452z"/>
	<path class="st8" d="M265.3,388.5c0,0,0.5,4.4,2.8,7c1.4,1.5,3,2.8,4.9,3.7l-3.7,2.3l4.4,1.9l-2.8,5.6l2.8,0.7
		c0,0-3.7,7.7-5.1,10.2c-1.4,2.6-3.5,7.2-4.4,9.1s-2.3,11.4-3.3,16.3c-0.7,4.2-1,8.5-1.2,12.8l-2-0.5l-0.2,2.6l-1.2,0.2v9.1
		c0,1.7-0.2,3.4-0.5,5.1l-24.2,0.2c0.2-2.1,1-4.1,2.3-5.8c2-2.6,8.8-2.1,8.8-2.1l4.9-15.8l1.6-17.7c0,0-0.5-12.3-0.5-16.5
		s-4.2-7.9-7.7-14c-3.5-6.1-4-9.8-4-9.8l-0.9,5.1l-1.4-7.7l0.8-7.8l4.1-5l10-9.1"/>
	<path class="st2" d="M302.3,426.9c0,0-10.7-5.8-19.8,0.7c-9.1,6.5-10.7,19.1-10.7,19.1s2.3-2.6,2.3-1.9c0,0.7-0.2,7.2,0.7,8.6
		c0.9,1.4,3.3,4,3.5,4.6c0.2,0.7,1.9,3.3,1.6,2.1c-0.2-1.1-0.2-2.2-0.2-3.3c0,0,3.7,5.6,4.9,6.1c1.2,0.5,5.1,3.1,5.8,3.1h1.4
		c0,0-7,0.5-10,2.8s-2.6,4.9-2.6,4.9"/>
	<path class="st2" d="M291.8,466c6.6,2.1,13.5,2.6,20.3,1.4"/>
	<path class="st2" d="M227.6,462.2c0,0-4,10.2-5.1,10.9c-1.2,0.7-3.3,1.6-3.3,1.6"/>
	<path class="st2" d="M236.2,425.5l-6-7.4l-1.4,3c0,0-3.3-5.3-3.7-6c-0.8-0.9-1.6-1.8-2.6-2.6l0.2,3l-1.6-4"/>
	<path class="st19" d="M227,330.6c0,0-3.3-3.5-6.7-1.9c-3.5,1.6-1.2,5.6,0.7,6.7c1.9,1.2,3,0.7,4.4-0.5
		C226.7,333.8,226.4,331.2,227,330.6z"/>
	<path class="st2" d="M215.7,321.5c0,0,1.6,2.6,1.4,4.2c-0.2,1.6-2,5.1-1.6,7.7c0.4,2.5,4.4,6.5,9.1,6.3s8.8-1.2,10.7-7.4"/>
	<path class="st2" d="M219.3,338.4c1.3,1.7,3.1,3.1,5.1,3.8c3,0.8,5.9-3.4,5.9-3.4"/>
	<path class="st10" d="M243.3,344.3l-2.5,2c0,0-10.6,39.9-11.4,43.1s5.8,5.9,9,6.6c3.2,0.7,10.4-0.9,10.8-9.5
		C249.6,378,243.3,344.3,243.3,344.3z M242.4,393.8c-2.2,1.5-3-0.4-5.1-1.8s4.7-38.3,4.7-38.3s-1,17.2,0.7,23.7
		S244.7,392.3,242.4,393.8L242.4,393.8z"/>
	<path class="st9" d="M140.1,305.1c-3.9,8.3-5.6,17.5-4.9,26.7c1.1,15.6,16,59.1,22.1,59.1c6.1,0,66.6-31.3,66.6-31.3
		s13.5-1.8,17.3-5s4.5-11.4,4.5-11.4s-0.5-2.5-2.7-1.4c-2.8,1.7-5.8,2.8-9,3.3c0,0,6.6-3.7,4.5-5c-2.1-1.3-8.7,2-13,4.3
		c-4.4,2.3-7.3,5.5-9.5,7.8c-2.2,2.3-17.1,6-26.6,6.8c-7.1,0.5-14.3,0.6-21.4,0.3c0,0-0.9-27.3-1.9-38.6
		c-1-11.4-11.2-18.9-16.3-19.5"/>
	<path class="st2" d="M167.9,359.2c0,0-4.9,7.1-5.4,11.1"/>
	<path class="st14" d="M245.8,339.1c-2.2,1.1-6.6,5-11.8,6c0,0,6.6-3.7,4.5-5c-2.1-1.3-8.7,2-13,4.3c-4.4,2.3-7.3,5.5-9.5,7.8
		c-2.2,2.3-15.8,5.6-25.3,6.6c-0.7,4.8-0.6,11.3,3.3,15.8c15.5-7.6,29.9-15.1,29.9-15.1s13.5-1.8,17.3-5c3.8-3.2,7.3-14.1,7.3-14.1
		S248,338,245.8,339.1z"/>
	<path class="st2" d="M248.5,340.4c0,0-3.9,4.6-5,6.1c-1,1.1-2.2,2.1-3.6,2.7"/>
	<path class="st2" d="M245,348.4c-1,1.4-2.2,2.5-3.6,3.4"/>
	<line class="st2" x1="234" y1="345.1" x2="229.5" y2="345"/>
</g>
</svg>
