<?xml version="1.0" encoding="utf-8"?>
<!-- Generator: Adobe Illustrator 25.0.1, SVG Export Plug-In . SVG Version: 6.00 Build 0)  -->
<svg version="1.1" id="Calque_1" xmlns="http://www.w3.org/2000/svg" xmlns:xlink="http://www.w3.org/1999/xlink" x="0px" y="0px"
	 viewBox="0 0 500 500" style="enable-background:new 0 0 500 500;" xml:space="preserve">
<style type="text/css">
	.st0{fill:#FCA331;}
	.st1{opacity:0.8;fill:#FFFFFF;enable-background:new    ;}
	.st2{opacity:0.5;fill:#FFFFFF;enable-background:new    ;}
	.st3{fill:#FFFFFF;stroke:#263238;stroke-width:1.2802;stroke-linecap:round;stroke-linejoin:round;}
	.st4{fill:#263238;stroke:#263238;stroke-width:1.2802;stroke-linecap:round;stroke-linejoin:round;}
	.st5{fill:none;stroke:#FFFFFF;stroke-width:1.2802;stroke-linecap:round;stroke-linejoin:round;}
	.st6{fill:#FCA331;stroke:#263238;stroke-width:1.2802;stroke-linecap:round;stroke-linejoin:round;}
	.st7{fill:none;stroke:#263238;stroke-width:1.2802;stroke-linecap:round;stroke-linejoin:round;}
	.st8{fill:#FFFFFF;}
	.st9{clip-path:url(#SVGID_2_);}
	.st10{clip-path:url(#SVGID_4_);}
	.st11{fill:none;}
	.st12{clip-path:url(#SVGID_6_);}
	.st13{clip-path:url(#SVGID_8_);}
	.st14{fill:#263238;}
	.st15{clip-path:url(#SVGID_10_);}
	.st16{clip-path:url(#SVGID_12_);}
	.st17{clip-path:url(#SVGID_14_);}
	.st18{clip-path:url(#SVGID_16_);}
</style>
<g id="freepik--background-simple--inject-62">
	<path class="st0" d="M472.7,336c28.9-50.6,30.8-118,10.9-172.1c-17.2-46.5-55.3-82.1-99.4-103.2C333,36.1,272,28.8,217.1,44.3
		c-14.5,4.1-28.5,7.8-42.1,14.5c-55.8,27.4-45,95-64.6,118.5c-16.5,19.8-48,13.9-67.8,29.1c-53.6,40.9-53.7,144.2,8.1,176.6
		C116.2,417.2,401.2,461.3,472.7,336z"/>
	<path class="st1" d="M472.7,336c28.9-50.6,30.8-118,10.9-172.1c-17.2-46.5-55.3-82.1-99.4-103.2C333,36.1,272,28.8,217.1,44.3
		c-14.5,4.1-28.5,7.8-42.1,14.5c-55.8,27.4-45,95-64.6,118.5c-16.5,19.8-48,13.9-67.8,29.1c-53.6,40.9-53.7,144.2,8.1,176.6
		C116.2,417.2,401.2,461.3,472.7,336z"/>
</g>
<g id="freepik--Floor--inject-62">
	<ellipse class="st0" cx="247.7" cy="432.2" rx="224" ry="31.6"/>
	<ellipse class="st2" cx="247.7" cy="432.2" rx="224" ry="31.6"/>
</g>
<g id="freepik--Couch--inject-62">
	<path class="st3" d="M404.5,294.4c0,0-2.4-92.8-35.2-103.2c-33.5-10.6-69.2-9.7-103.9-8.1c-32.7,1.5-65.6,0.6-98.3,2.7
		c-35.9,2.4-49.2,18.9-57.1,52.1c-4.3,18.6-6.7,37.5-7.2,56.6l-8,24h317.7L404.5,294.4z"/>
	<path class="st3" d="M130,305.6v-20.8c0,0-0.8-15.2-18.4-16.8S46,304,46.8,312c0.8,8,9.6,64.8,15.2,67.2s20,13.6,32.8,7.2
		C107.6,380.1,130,305.6,130,305.6z"/>
	<path class="st3" d="M370.9,305.6v-20.8c0,0,0.8-15.2,18.4-16.8s65.6,36,64.8,44c-0.8,8-9.6,64.8-15.2,67.2
		c-5.6,2.4-20,13.6-32.8,7.2C393.3,380.1,370.9,305.6,370.9,305.6z"/>
	<path class="st3" d="M130,305.6c-1.3,1.4-2.7,2.6-4.2,3.8c-10.8,8.9-38.2,29.9-38.2,29.9h327.3l-44-36L130,305.6z"/>
	<polygon class="st4" points="87.6,339.2 87.6,372.3 414.7,372.3 414.9,339.2 	"/>
	<path class="st4" d="M77.2,404.9L67,436.9c-0.7,2.2,0.5,4.6,2.8,5.3c0.4,0.1,0.8,0.2,1.3,0.2l0,0c1.4,0,2.7-0.7,3.5-1.8l24.3-35
		L77.2,404.9z"/>
	<path class="st4" d="M425.2,404.9l10.2,32.1c0.7,2.2-0.5,4.6-2.8,5.3c-0.4,0.1-0.8,0.2-1.3,0.2l0,0c-1.4,0-2.7-0.7-3.5-1.8
		l-24.3-35L425.2,404.9z"/>
	<path class="st4" d="M446,302.6c-5.3-2.6-11.3-3-18.5,0.6c-14.4,7.2-12.8,36-12.8,36v32H87.6v-32c0,0,1.6-28.8-12.8-36
		c-7.2-3.6-13.2-3.2-18.5-0.6c-9.2,4.5-14.1,14.8-12.7,25c2.3,16.6,6.5,45.6,10.4,57.2c5.6,16.8,5.6,20,17.6,24
		c10.4,3.5,144.2,0.9,179.5,0.2c35.3,0.7,169.1,3.3,179.5-0.2c12-4,12-7.2,17.6-24c3.8-11.6,8.1-40.5,10.4-57.2
		C460,317.5,455.2,307.1,446,302.6z"/>
	<line class="st5" x1="400.9" y1="371.2" x2="410.3" y2="371.2"/>
	<line class="st5" x1="87.6" y1="371.2" x2="392.4" y2="371.2"/>
</g>
<g id="freepik--Character--inject-62">
	<path class="st6" d="M194.8,290.1c0,0,16.6-2.1,27.7,1.7s12,20.9,11.5,35.4c-0.4,14.5-6,74.7-6,83.2s0,17.1-3.4,23.9
		c-3.4,6.8-13.2,9.8-17.5,10.7c-4.3,0.9-5.5-0.9-5.5-0.9s-5.1,0.4-5.1-2.1c0-2.6,4.7-2.6,7.3-5.1c2.6-2.6,8.5-13.6,9.8-20
		c1.1-6.5,1.8-13.1,2.1-19.6c0.4-6.4-3.8-34.1-6.8-48.6s-3-16.6-5.6-26.9S194.4,298.2,194.8,290.1z"/>
	<path class="st3" d="M228.1,411.1c-4.6,0.8-9.3,0-13.3-2.3c-0.3,2.7-0.7,5.4-1.2,8c-1.3,6.4-7.2,17.5-9.8,20
		c-2.6,2.6-7.3,2.6-7.3,5.1c0,2.6,5.1,2.1,5.1,2.1s1.3,1.7,5.5,0.9c4.3-0.8,14.1-3.8,17.5-10.7C228,427.7,228.1,419.4,228.1,411.1z"
		/>
	<path class="st7" d="M201.6,444.2c0-1.2,0.7-2.4,1.7-3c0.9-0.4,1.6-1,2.2-1.9"/>
	<path class="st7" d="M204.9,445c0.4-0.9,0.9-1.7,1.5-2.4c0.9-1.1,2.6-2.7,2.6-2.7"/>
	<path class="st7" d="M210.2,444.2c0,0-1.1-2,0.1-2.7c1-0.6,1.9-1.3,2.7-2"/>
	<path class="st7" d="M214.2,442.9c0.2-1.2,0.8-2.3,1.5-3.2c0.6-0.6,1.2-1.2,1.7-1.9"/>
	<path class="st6" d="M150,334.9c0,0,20-2.1,34.6-7.3s22.2-7.7,24.7-17.9s-2.6-18.8-18.3-19.6c-15.8-0.8-38.4,0.8-45.2,15.8
		S140.2,329.8,150,334.9z"/>
	<path class="st8" d="M192.3,203.2c0,0-19.1,7.1-24.3,8.6c-5.2,1.4-11.9,7.7-13.8,16.2c-1.9,8.5-2.9,45.3-2.9,45.3
		s-17.7,5.2-21.5,6.2c-3.8,1-4.3,9.5-4.3,9.5c-0.2,1.5-0.7,2.9-1.4,4.3l-1,1.4c0,0-3.3-1.4,19.1,3.3s58.7,1.9,58.7,1.9
		s5.2,0.5,6.7-6.2c1.4-6.7,2.9-16.2,4.8-19.1c1.9-2.9,3.8-5.7,3.8-14.3c0-8.6,5.2-32.9,4.8-41.5c-0.5-8.6-8.1-14.3-16.6-15.7
		C195.7,201.7,192.3,203.2,192.3,203.2z"/>
	<g>
		<defs>
			<path id="SVGID_1_" d="M192.3,203.2c0,0-19.1,7.1-24.3,8.6c-5.2,1.4-11.9,7.7-13.8,16.2c-1.9,8.5-2.9,45.3-2.9,45.3
				s-17.7,5.2-21.5,6.2c-3.8,1-4.3,9.5-4.3,9.5c-0.2,1.5-0.7,2.9-1.4,4.3l-1,1.4c0,0-3.3-1.4,19.1,3.3s58.7,1.9,58.7,1.9
				s5.2,0.5,6.7-6.2c1.4-6.7,2.9-16.2,4.8-19.1c1.9-2.9,3.8-5.7,3.8-14.3c0-8.6,5.2-32.9,4.8-41.5c-0.5-8.6-8.1-14.3-16.6-15.7
				C195.7,201.7,192.3,203.2,192.3,203.2z"/>
		</defs>
		<clipPath id="SVGID_2_">
			<use xlink:href="#SVGID_1_"  style="overflow:visible;"/>
		</clipPath>
		<g class="st9">
			<g>
				<defs>
					<path id="SVGID_3_" d="M192.3,203.2c0,0-19.1,7.1-24.3,8.6c-5.2,1.4-11.9,7.7-13.8,16.2c-1.9,8.5-2.9,45.3-2.9,45.3
						s-17.7,5.2-21.5,6.2c-3.8,1-4.3,9.5-4.3,9.5c-0.2,1.5-0.7,2.9-1.4,4.3l-1,1.4c0,0-3.3-1.4,19.1,3.3s58.7,1.9,58.7,1.9
						s5.2,0.5,6.7-6.2c1.4-6.7,2.9-16.2,4.8-19.1c1.9-2.9,3.8-5.7,3.8-14.3c0-8.6,5.2-32.9,4.8-41.5c-0.5-8.6-8.1-14.3-16.6-15.7
						C195.7,201.7,192.3,203.2,192.3,203.2z"/>
				</defs>
				<clipPath id="SVGID_4_">
					<use xlink:href="#SVGID_3_"  style="overflow:visible;"/>
				</clipPath>
				<g class="st10">
					<rect x="209.4" y="192.8" class="st11" width="37.4" height="30.4"/>
					<rect x="209.4" y="192.8" class="st8" width="37.4" height="30.4"/>
					<path class="st0" d="M218.7,212.4c0,0-1.6-3.8-4.5-3.8c-2.9,0-4.5,3.8-3.2,5.8c1.3,1.9,6.4,0.6,6.4,0.6s-2.9,3.2-1.9,5.1
						c1.1,2.2,3.7,3.1,5.9,2.1c0.4-0.2,0.8-0.5,1.2-0.8c3.2-2.6-1-5.5-1-5.5s4.2,0.3,5.5-1.9c1.3-2.3-1.3-6.4-3.8-5.8
						S218.7,212.4,218.7,212.4z"/>
					<path class="st0" d="M236.9,198.6c0,0-1.6-3.8-4.5-3.8c-2.9,0-4.5,3.8-3.2,5.8c1.3,1.9,6.4,0.6,6.4,0.6s-2.9,3.2-1.9,5.1
						c1.1,2.2,3.7,3.1,5.9,2.1c0.4-0.2,0.8-0.5,1.2-0.8c3.2-2.6-1-5.5-1-5.5s4.2,0.3,5.5-1.9c1.3-2.3-1.3-6.4-3.8-5.8
						S236.9,198.6,236.9,198.6z"/>
					<rect x="209.4" y="223.2" class="st11" width="37.4" height="30.4"/>
					<rect x="209.4" y="223.2" class="st8" width="37.4" height="30.4"/>
					<path class="st0" d="M218.7,242.8c0,0-1.6-3.8-4.5-3.8c-2.9,0-4.5,3.8-3.2,5.8c1.3,1.9,6.4,0.6,6.4,0.6s-2.9,3.2-1.9,5.1
						c1.1,2.2,3.7,3.1,5.9,2.1c0.4-0.2,0.8-0.5,1.2-0.8c3.2-2.6-1-5.5-1-5.5s4.2,0.3,5.5-2c1.3-2.3-1.3-6.4-3.8-5.8
						C220.6,239.2,218.7,242.8,218.7,242.8z"/>
					<path class="st0" d="M236.9,229c0,0-1.6-3.8-4.5-3.8c-2.9,0-4.5,3.8-3.2,5.8c1.3,1.9,6.4,0.6,6.4,0.6s-2.9,3.2-1.9,5.1
						c1.1,2.2,3.7,3.1,5.9,2.1c0.4-0.2,0.8-0.5,1.2-0.8c3.2-2.6-1-5.5-1-5.5s4.2,0.3,5.5-1.9c1.3-2.3-1.3-6.4-3.8-5.8
						S236.9,229,236.9,229z"/>
					<rect x="209.4" y="253.6" class="st11" width="37.4" height="30.4"/>
					<rect x="209.4" y="253.6" class="st8" width="37.4" height="30.4"/>
					<path class="st0" d="M218.7,273.2c0,0-1.6-3.8-4.5-3.8c-2.9,0-4.5,3.8-3.2,5.8c1.3,1.9,6.4,0.6,6.4,0.6s-2.9,3.2-1.9,5.1
						c1.1,2.2,3.7,3.1,5.9,2.1c0.4-0.2,0.8-0.5,1.2-0.8c3.2-2.6-1-5.5-1-5.5s4.2,0.3,5.5-1.9c1.3-2.3-1.3-6.4-3.8-5.8
						C220.6,269.6,218.7,273.2,218.7,273.2z"/>
					<path class="st0" d="M236.9,259.4c0,0-1.6-3.8-4.5-3.8c-2.9,0-4.5,3.8-3.2,5.8c1.3,1.9,6.4,0.6,6.4,0.6s-2.9,3.2-1.9,5.1
						c1.1,2.2,3.7,3.1,5.9,2.1c0.4-0.2,0.8-0.5,1.2-0.8c3.2-2.6-1-5.5-1-5.5s4.2,0.3,5.5-1.9c1.3-2.3-1.3-6.4-3.8-5.8
						S236.9,259.4,236.9,259.4z"/>
					<rect x="209.4" y="284" class="st11" width="37.4" height="30.4"/>
					<rect x="209.4" y="284" class="st8" width="37.4" height="30.4"/>
					<path class="st0" d="M218.7,303.6c0,0-1.6-3.8-4.5-3.8c-2.9,0-4.5,3.8-3.2,5.8c1.3,1.9,6.4,0.6,6.4,0.6s-2.9,3.2-1.9,5.1
						c1.1,2.2,3.7,3.1,5.9,2.1c0.4-0.2,0.8-0.5,1.2-0.8c3.2-2.6-1-5.5-1-5.5s4.2,0.3,5.5-1.9c1.3-2.3-1.3-6.4-3.8-5.8
						C220.6,300,218.7,303.6,218.7,303.6z"/>
					<path class="st0" d="M236.9,289.8c0,0-1.6-3.8-4.5-3.8c-2.9,0-4.5,3.8-3.2,5.8c1.3,1.9,6.4,0.6,6.4,0.6s-2.9,3.2-1.9,5.1
						c1.1,2.2,3.7,3.1,5.9,2.1c0.4-0.2,0.8-0.5,1.2-0.8c3.2-2.6-1-5.5-1-5.5s4.2,0.3,5.5-1.9c1.3-2.3-1.3-6.4-3.8-5.8
						S236.9,289.8,236.9,289.8z"/>
					<rect x="172" y="192.8" class="st11" width="37.4" height="30.4"/>
					<rect x="172" y="192.8" class="st8" width="37.4" height="30.4"/>
					<path class="st0" d="M181.2,212.4c0,0-1.6-3.8-4.5-3.8c-2.9,0-4.5,3.8-3.2,5.8c1.3,1.9,6.4,0.6,6.4,0.6s-2.9,3.2-1.9,5.1
						c1.1,2.2,3.7,3.1,5.9,2.1c0.4-0.2,0.8-0.5,1.2-0.8c3.2-2.6-1-5.5-1-5.5s4.2,0.3,5.5-1.9c1.3-2.3-1.3-6.4-3.8-5.8
						S181.2,212.4,181.2,212.4z"/>
					<path class="st0" d="M199.5,198.6c0,0-1.6-3.8-4.5-3.8c-2.9,0-4.5,3.8-3.2,5.8s6.4,0.6,6.4,0.6s-2.9,3.2-1.9,5.1
						c1.1,2.2,3.7,3.1,5.9,2.1c0.4-0.2,0.8-0.5,1.2-0.8c3.2-2.6-1-5.5-1-5.5s4.2,0.3,5.5-1.9c1.3-2.3-1.3-6.4-3.8-5.8
						S199.5,198.6,199.5,198.6z"/>
					<rect x="172" y="223.2" class="st11" width="37.4" height="30.4"/>
					<rect x="172" y="223.2" class="st8" width="37.4" height="30.4"/>
					<path class="st0" d="M181.2,242.8c0,0-1.6-3.8-4.5-3.8c-2.9,0-4.5,3.8-3.2,5.8c1.3,1.9,6.4,0.6,6.4,0.6s-2.9,3.2-1.9,5.1
						c1.1,2.2,3.7,3.1,5.9,2.1c0.4-0.2,0.8-0.5,1.2-0.8c3.2-2.6-1-5.5-1-5.5s4.2,0.3,5.5-1.9c1.3-2.3-1.3-6.4-3.8-5.8
						S181.2,242.8,181.2,242.8z"/>
					<path class="st0" d="M199.5,229c0,0-1.6-3.8-4.5-3.8c-2.9,0-4.5,3.8-3.2,5.8s6.4,0.6,6.4,0.6s-2.9,3.2-1.9,5.1
						c1.1,2.2,3.7,3.1,5.9,2.1c0.4-0.2,0.8-0.5,1.2-0.8c3.2-2.6-1-5.5-1-5.5s4.2,0.3,5.5-1.9c1.3-2.3-1.3-6.4-3.8-5.8
						S199.5,229,199.5,229z"/>
					<rect x="172" y="253.6" class="st11" width="37.4" height="30.4"/>
					<rect x="172" y="253.6" class="st8" width="37.4" height="30.4"/>
					<path class="st0" d="M181.2,273.2c0,0-1.6-3.8-4.5-3.8c-2.9,0-4.5,3.8-3.2,5.8c1.3,1.9,6.4,0.6,6.4,0.6s-2.9,3.2-1.9,5.1
						c1.1,2.2,3.7,3.1,5.9,2.1c0.4-0.2,0.8-0.5,1.2-0.8c3.2-2.6-1-5.5-1-5.5s4.2,0.3,5.5-1.9c1.3-2.3-1.3-6.4-3.8-5.8
						C183.2,269.6,181.2,273.2,181.2,273.2z"/>
					<path class="st0" d="M199.5,259.4c0,0-1.6-3.8-4.5-3.8c-2.9,0-4.5,3.8-3.2,5.8c1.3,1.9,6.4,0.6,6.4,0.6s-2.9,3.2-1.9,5.1
						c1.1,2.2,3.7,3.1,5.9,2.1c0.4-0.2,0.8-0.5,1.2-0.8c3.2-2.6-1-5.5-1-5.5s4.2,0.3,5.5-1.9c1.3-2.3-1.3-6.4-3.8-5.8
						S199.5,259.4,199.5,259.4z"/>
					<rect x="172" y="284" class="st11" width="37.4" height="30.4"/>
					<rect x="172" y="284" class="st8" width="37.4" height="30.4"/>
					<path class="st0" d="M181.2,303.6c0,0-1.6-3.8-4.5-3.8c-2.9,0-4.5,3.8-3.2,5.8c1.3,1.9,6.4,0.6,6.4,0.6s-2.9,3.2-1.9,5.1
						c1.1,2.2,3.7,3.1,5.9,2.1c0.4-0.2,0.8-0.5,1.2-0.8c3.2-2.6-1-5.5-1-5.5s4.2,0.3,5.5-1.9c1.3-2.3-1.3-6.4-3.8-5.8
						C183.2,300,181.2,303.6,181.2,303.6z"/>
					<path class="st0" d="M199.5,289.8c0,0-1.6-3.8-4.5-3.8c-2.9,0-4.5,3.8-3.2,5.8s6.4,0.6,6.4,0.6s-2.9,3.2-1.9,5.1
						c1.1,2.2,3.7,3.1,5.9,2.1c0.4-0.2,0.8-0.5,1.2-0.8c3.2-2.6-1-5.5-1-5.5s4.2,0.3,5.5-1.9c1.3-2.3-1.3-6.4-3.8-5.8
						S199.5,289.8,199.5,289.8z"/>
					<rect x="134.5" y="192.8" class="st11" width="37.4" height="30.4"/>
					<rect x="134.5" y="192.8" class="st8" width="37.4" height="30.4"/>
					<path class="st0" d="M143.8,212.4c0,0-1.6-3.8-4.5-3.8c-2.9,0-4.5,3.8-3.2,5.8c1.3,1.9,6.4,0.6,6.4,0.6s-2.9,3.2-1.9,5.1
						c1.1,2.2,3.7,3.1,5.9,2.1c0.4-0.2,0.8-0.5,1.2-0.8c3.2-2.6-1-5.5-1-5.5s4.2,0.3,5.5-1.9c1.3-2.3-1.3-6.4-3.8-5.8
						S143.8,212.4,143.8,212.4z"/>
					<path class="st0" d="M162,198.6c0,0-1.6-3.8-4.5-3.8c-2.9,0-4.5,3.8-3.2,5.8c1.3,1.9,6.4,0.6,6.4,0.6s-2.9,3.2-1.9,5.1
						c1.1,2.2,3.7,3.1,5.9,2.1c0.4-0.2,0.8-0.5,1.2-0.8c3.2-2.6-1-5.5-1-5.5s4.2,0.3,5.5-1.9c1.3-2.3-1.3-6.4-3.8-5.8
						S162,198.6,162,198.6z"/>
					<rect x="134.5" y="223.2" class="st11" width="37.4" height="30.4"/>
					<rect x="134.5" y="223.2" class="st8" width="37.4" height="30.4"/>
					<path class="st0" d="M143.8,242.8c0,0-1.6-3.8-4.5-3.8c-2.9,0-4.5,3.8-3.2,5.8c1.3,1.9,6.4,0.6,6.4,0.6s-2.9,3.2-1.9,5.1
						c1.1,2.2,3.7,3.1,5.9,2.1c0.4-0.2,0.8-0.5,1.2-0.8c3.2-2.6-1-5.5-1-5.5s4.2,0.3,5.5-1.9c1.3-2.3-1.3-6.4-3.8-5.8
						S143.8,242.8,143.8,242.8z"/>
					<path class="st0" d="M162,229c0,0-1.6-3.8-4.5-3.8c-2.9,0-4.5,3.8-3.2,5.8c1.3,1.9,6.4,0.6,6.4,0.6s-2.9,3.2-1.9,5.1
						c1.1,2.2,3.7,3.1,5.9,2.1c0.4-0.2,0.8-0.5,1.2-0.8c3.2-2.6-1-5.5-1-5.5s4.2,0.3,5.5-1.9c1.3-2.3-1.3-6.4-3.8-5.8
						S162,229,162,229z"/>
					<rect x="134.5" y="253.6" class="st11" width="37.4" height="30.4"/>
					<rect x="134.5" y="253.6" class="st8" width="37.4" height="30.4"/>
					<path class="st0" d="M143.8,273.2c0,0-1.6-3.8-4.5-3.8c-2.9,0-4.5,3.8-3.2,5.8c1.3,1.9,6.4,0.6,6.4,0.6s-2.9,3.2-1.9,5.1
						c1.1,2.2,3.7,3.1,5.9,2.1c0.4-0.2,0.8-0.5,1.2-0.8c3.2-2.6-1-5.5-1-5.5s4.2,0.3,5.5-1.9c1.3-2.3-1.3-6.4-3.8-5.8
						C145.7,269.6,143.8,273.2,143.8,273.2z"/>
					<path class="st0" d="M162,259.4c0,0-1.6-3.8-4.5-3.8c-2.9,0-4.5,3.8-3.2,5.8c1.3,1.9,6.4,0.6,6.4,0.6s-2.9,3.2-1.9,5.1
						c1.1,2.2,3.7,3.1,5.9,2.1c0.4-0.2,0.8-0.5,1.2-0.8c3.2-2.6-1-5.5-1-5.5s4.2,0.3,5.5-1.9c1.3-2.3-1.3-6.4-3.8-5.8
						S162,259.4,162,259.4z"/>
					<rect x="134.5" y="284" class="st11" width="37.4" height="30.4"/>
					<rect x="134.5" y="284" class="st8" width="37.4" height="30.4"/>
					<path class="st0" d="M143.8,303.6c0,0-1.6-3.8-4.5-3.8c-2.9,0-4.5,3.8-3.2,5.8c1.3,1.9,6.4,0.6,6.4,0.6s-2.9,3.2-1.9,5.1
						c1.1,2.2,3.7,3.1,5.9,2.1c0.4-0.2,0.8-0.5,1.2-0.8c3.2-2.6-1-5.5-1-5.5s4.2,0.3,5.5-1.9c1.3-2.3-1.3-6.4-3.8-5.8
						C145.7,300,143.8,303.6,143.8,303.6z"/>
					<path class="st0" d="M162,289.8c0,0-1.6-3.8-4.5-3.8c-2.9,0-4.5,3.8-3.2,5.8c1.3,1.9,6.4,0.6,6.4,0.6s-2.9,3.2-1.9,5.1
						c1.1,2.2,3.7,3.1,5.9,2.1c0.4-0.2,0.8-0.5,1.2-0.8c3.2-2.6-1-5.5-1-5.5s4.2,0.3,5.5-1.9c1.3-2.3-1.3-6.4-3.8-5.8
						S162,289.8,162,289.8z"/>
					<rect x="97.1" y="192.8" class="st11" width="37.4" height="30.4"/>
					<rect x="97.1" y="192.8" class="st8" width="37.4" height="30.4"/>
					<path class="st0" d="M106.3,212.4c0,0-1.6-3.8-4.5-3.8s-4.5,3.8-3.2,5.8s6.4,0.6,6.4,0.6s-2.9,3.2-1.9,5.1
						c1.1,2.2,3.7,3.1,5.9,2.1c0.4-0.2,0.8-0.5,1.2-0.8c3.2-2.6-1-5.5-1-5.5s4.2,0.3,5.5-1.9c1.3-2.3-1.3-6.4-3.8-5.8
						S106.3,212.4,106.3,212.4z"/>
					<path class="st0" d="M124.6,198.6c0,0-1.6-3.8-4.5-3.8s-4.5,3.8-3.2,5.8c1.3,1.9,6.4,0.6,6.4,0.6s-2.9,3.2-1.9,5.1
						c1.1,2.2,3.7,3.1,5.9,2.1c0.4-0.2,0.8-0.5,1.2-0.8c3.2-2.6-1-5.5-1-5.5s4.2,0.3,5.5-1.9c1.3-2.3-1.3-6.4-3.8-5.8
						S124.6,198.6,124.6,198.6z"/>
					<rect x="97.1" y="223.2" class="st11" width="37.4" height="30.4"/>
					<rect x="97.1" y="223.2" class="st8" width="37.4" height="30.4"/>
					<path class="st0" d="M106.3,242.8c0,0-1.6-3.8-4.5-3.8s-4.5,3.8-3.2,5.8s6.4,0.6,6.4,0.6s-2.9,3.2-1.9,5.1
						c1.1,2.2,3.7,3.1,5.9,2.1c0.4-0.2,0.8-0.5,1.2-0.8c3.2-2.6-1-5.5-1-5.5s4.2,0.3,5.5-1.9c1.3-2.3-1.3-6.4-3.8-5.8
						S106.3,242.8,106.3,242.8z"/>
					<path class="st0" d="M124.6,229c0,0-1.6-3.8-4.5-3.8s-4.5,3.8-3.2,5.8c1.3,1.9,6.4,0.6,6.4,0.6s-2.9,3.2-1.9,5.1
						c1.1,2.2,3.7,3.1,5.9,2.1c0.4-0.2,0.8-0.5,1.2-0.8c3.2-2.6-1-5.5-1-5.5s4.2,0.3,5.5-1.9c1.3-2.3-1.3-6.4-3.8-5.8
						S124.6,229,124.6,229z"/>
					<rect x="97.1" y="253.6" class="st11" width="37.4" height="30.4"/>
					<rect x="97.1" y="253.6" class="st8" width="37.4" height="30.4"/>
					<path class="st0" d="M106.3,273.2c0,0-1.6-3.8-4.5-3.8s-4.5,3.8-3.2,5.8s6.4,0.6,6.4,0.6s-2.9,3.2-1.9,5.1
						c1.1,2.2,3.7,3.1,5.9,2.1c0.4-0.2,0.8-0.5,1.2-0.8c3.2-2.6-1-5.5-1-5.5s4.2,0.3,5.5-1.9s-1.3-6.4-3.8-5.8
						C108.3,269.6,106.3,273.2,106.3,273.2z"/>
					<path class="st0" d="M124.6,259.4c0,0-1.6-3.8-4.5-3.8s-4.5,3.8-3.2,5.8c1.3,1.9,6.4,0.6,6.4,0.6s-2.9,3.2-1.9,5.1
						c1.1,2.2,3.7,3.1,5.9,2.1c0.4-0.2,0.8-0.5,1.2-0.8c3.2-2.6-1-5.5-1-5.5s4.2,0.3,5.5-1.9c1.3-2.3-1.3-6.4-3.8-5.8
						S124.6,259.4,124.6,259.4z"/>
					<rect x="97.1" y="284" class="st11" width="37.4" height="30.4"/>
					<rect x="97.1" y="284" class="st8" width="37.4" height="30.4"/>
					<path class="st0" d="M106.3,303.6c0,0-1.6-3.8-4.5-3.8s-4.5,3.8-3.2,5.8s6.4,0.6,6.4,0.6s-2.9,3.2-1.9,5.1
						c1.1,2.2,3.7,3.1,5.9,2.1c0.4-0.2,0.8-0.5,1.2-0.8c3.2-2.6-1-5.5-1-5.5s4.2,0.3,5.5-1.9c1.3-2.3-1.3-6.4-3.8-5.8
						C108.3,300,106.3,303.6,106.3,303.6z"/>
					<path class="st0" d="M124.6,289.8c0,0-1.6-3.8-4.5-3.8s-4.5,3.8-3.2,5.8c1.3,1.9,6.4,0.6,6.4,0.6s-2.9,3.2-1.9,5.1
						c1.1,2.2,3.7,3.1,5.9,2.1c0.4-0.2,0.8-0.5,1.2-0.8c3.2-2.6-1-5.5-1-5.5s4.2,0.3,5.5-1.9c1.3-2.3-1.3-6.4-3.8-5.8
						S124.6,289.8,124.6,289.8z"/>
				</g>
			</g>
		</g>
	</g>
	<path class="st7" d="M192.3,203.2c0,0-19.1,7.1-24.3,8.6c-5.2,1.4-11.9,7.7-13.8,16.2c-1.9,8.5-2.9,45.3-2.9,45.3
		s-17.7,5.2-21.5,6.2c-3.8,1-4.3,9.5-4.3,9.5c-0.2,1.5-0.7,2.9-1.4,4.3l-1,1.4c0,0-3.3-1.4,19.1,3.3s58.7,1.9,58.7,1.9
		s5.2,0.5,6.7-6.2c1.4-6.7,2.9-16.2,4.8-19.1c1.9-2.9,3.8-5.7,3.8-14.3c0-8.6,5.2-32.9,4.8-41.5c-0.5-8.6-8.1-14.3-16.6-15.7
		C195.7,201.7,192.3,203.2,192.3,203.2z"/>
	<path class="st7" d="M155.6,286.8c0,0-14.2-1.1-20.5-5.6"/>
	<path class="st3" d="M200.9,197c0,0-8.1-0.9-10.5,3.3c-2.9,4.6-4.5,9.9-4.8,15.3c-0.5,7.2-1,19.1-1,19.1l14.8-7.2l16.2,7.7
		c0,0-4.3-16.6-5.2-25.3C209.4,201.3,206.1,196,200.9,197z"/>
	<path class="st4" d="M204.7,198.4c-4.9-6.2-8-13.6-9.1-21.5c-1.4-12.4,3.3-21.5,11.9-26.2c8.6-4.8,28.6-9.6,36.3-7.2
		c7.6,2.4,18.1,21.5,21,31.5c2.9,10-0.9,30.5-1.9,36.7c-1,6.2,1,32,3.3,46.3c2.4,14.3-5.2,32.4-20,36.7c-14.7,4.3-30.1,0-33.9-10.5
		c-2.8-7.7-1.9-26.2,1.4-39.1s3.3-32.4,3.3-38.2C217.1,201.3,204.7,198.4,204.7,198.4z"/>
	<path class="st5" d="M231.5,168c0,0,3.8,5.1-10.2,3.4c-14.1-1.7-20.4-5.1-22.1,0.4"/>
	<path class="st5" d="M198.8,167.6c0,0,0-10.2,9.8-10.2s18.1,4.1,21.7,2.6"/>
	<path class="st5" d="M240.4,167.6c2.2,4.9,5.7,9,10.2,11.9c7.7,5.1,13.2,17.8,12.7,25.1"/>
	<path class="st5" d="M250.6,189.2c0.7,9.8,2,19.6,3.8,29.3c3.4,19.1,6.4,49.7-2.1,62.8c-8.5,13.2-17,14.4-24.6,9.8"/>
	<path class="st5" d="M249.8,197.7c0,0,0.4,62.9-9.3,72.2c-9.8,9.3-26.3,4.7-24.2-23.8"/>
	<path class="st8" d="M205.6,184.5c0,0-2.4,5.7-4.8,12.4c-2.4,6.7-5.7,11.4-5.7,18.1s0,20,3.3,19.6c3.3-0.5,14.8-23.4,16.2-24.3
		c1.4-0.9-4.8-12.4-4.8-18.1C210.1,189,208.4,186.1,205.6,184.5z"/>
	<g>
		<defs>
			<path id="SVGID_5_" d="M205.6,184.5c0,0-2.4,5.7-4.8,12.4c-2.4,6.7-5.7,11.4-5.7,18.1s0,20,3.3,19.6c3.3-0.5,14.8-23.4,16.2-24.3
				c1.4-0.9-4.8-12.4-4.8-18.1C210.1,189,208.4,186.1,205.6,184.5z"/>
		</defs>
		<clipPath id="SVGID_6_">
			<use xlink:href="#SVGID_5_"  style="overflow:visible;"/>
		</clipPath>
		<g class="st12">
			<path class="st0" d="M209.9,192.2c0.2-3.2-1.5-6.2-4.3-7.7c0,0-2.4,5.7-4.8,12.4c-0.3,0.9-0.7,1.8-1,2.6c0.9,2,2,3.8,3.3,5.6
				l5.5,7.6c0,0-5.6,11.9-9.1,16.2c-0.9,1.1-2,2-3.3,2.7c0.5,1.9,1.2,3.1,2.3,3c3.3-0.5,14.8-23.4,16.2-24.3
				C216.1,209.3,209.9,197.9,209.9,192.2z"/>
			<path class="st2" d="M209.9,192.2c0.2-3.2-1.5-6.2-4.3-7.7c0,0-2.4,5.7-4.8,12.4c-0.3,0.9-0.7,1.8-1,2.6c0.9,2,2,3.8,3.3,5.6
				l5.5,7.6c0,0-5.6,11.9-9.1,16.2c-0.9,1.1-2,2-3.3,2.7c0.5,1.9,1.2,3.1,2.3,3c3.3-0.5,14.8-23.4,16.2-24.3
				C216.1,209.3,209.9,197.9,209.9,192.2z"/>
		</g>
	</g>
	<path class="st7" d="M205.6,184.5c0,0-2.4,5.7-4.8,12.4c-2.4,6.7-5.7,11.4-5.7,18.1s0,20,3.3,19.6c3.3-0.5,14.8-23.4,16.2-24.3
		c1.4-0.9-4.8-12.4-4.8-18.1C210.1,189,208.4,186.1,205.6,184.5z"/>
	<path class="st6" d="M158.5,286.3c0,0-28.6,1.1-35.4,8.5s-11.9,25.6-1.7,36.3c10.2,10.7,25.6,7.7,36.7,3
		c11.1-4.7,22.6-16.6,22.6-16.6s-9.8,24.7-11.5,38c-1.7,13.2-5.6,79.8-5.6,83.6s6.4,5.5,10.7,4.3c4.3-1.3,17.1-8.1,19.2-8.1
		s9-4.3,9.8-5.5s-0.8-3-0.8-3s3-0.8,3-3.4c0-2.6-3.8-1.3-6-0.9s-14.9,0.4-17.9,0.4c-3,0-6-1.7-6-3.4s-0.4-11.5,7.2-28.2
		c7.7-16.6,27.7-66.1,28.6-83.2c0.9-17.1-11.1-18.8-24.3-20.1C173.9,286.7,169.2,286.3,158.5,286.3z"/>
	<path class="st7" d="M169.2,402.4l-0.7,7"/>
	<path class="st7" d="M127,318.3c2.7-0.5,5.4-1.4,7.9-2.7c10.7-5.1,52.8-16.6,56.9-15.5c4.1,1.1-4.4,7.4-4.4,7.4s6.3-4.1,5.1-0.7
		c-0.6,1.9-1.4,3.7-2.2,5.5c0,0-15.9,41.7-17.4,53.9c-0.8,6.6-2,18.7-3,28.4"/>
	<path class="st7" d="M117.6,317.9c1.2,0.4,2.5,0.7,3.7,0.8"/>
	<path class="st3" d="M203.3,429.7c0.9-1.3-0.8-3-0.8-3s3-0.8,3-3.4c0-2.6-3.8-1.3-6-0.9c-2.1,0.4-14.9,0.4-17.9,0.4
		c-3,0-6-1.7-6-3.4c0-2.5,0.1-4.9,0.6-7.3c-3.6,1.1-7.5,1-11.1-0.1c-0.8,14.1-1.4,25.5-1.4,27.1c0,3.8,6.4,5.5,10.7,4.3
		c4.3-1.3,17.1-8.1,19.2-8.1S202.5,430.9,203.3,429.7z"/>
	<path class="st7" d="M202.5,426.7c-2.2-1-4.7-1.1-7-0.4"/>
	<path class="st7" d="M194.4,428.4c0,0,6.2-2,8.4,1.6"/>
	<path class="st7" d="M193.1,430.9c0,0,4.5-1.8,6.4,0.9"/>
	<path class="st7" d="M190.1,433.5c0,0,3.4-0.4,3.4,1.7"/>
	<path class="st8" d="M211.8,180.7c0,0,0-9.5-4.8-7.7c-4.8,1.9-3.3,14.3-2.4,16.2c0.5,1.1,1.3,1.9,2.4,2.4c0,0,2.4,15.7,8.1,21.9
		c5.7,6.2,13.8,2.9,20-1.4c6.2-4.3,13.8-26.7,13.8-26.7l-11-12.8l-4.3-14.3c0,0-3.3-0.5-1.9,1.9c1.4,2.4,2.8,12.4,2.8,12.4
		S227.6,182.6,211.8,180.7z"/>
	<g>
		<defs>
			<path id="SVGID_7_" d="M211.8,180.7c0,0,0-9.5-4.8-7.7c-4.8,1.9-3.3,14.3-2.4,16.2c0.5,1.1,1.3,1.9,2.4,2.4
				c0,0,2.4,15.7,8.1,21.9c5.7,6.2,13.8,2.9,20-1.4c6.2-4.3,13.8-26.7,13.8-26.7l-11-12.8l-4.3-14.3c0,0-3.3-0.5-1.9,1.9
				c1.4,2.4,2.8,12.4,2.8,12.4S227.6,182.6,211.8,180.7z"/>
		</defs>
		<clipPath id="SVGID_8_">
			<use xlink:href="#SVGID_7_"  style="overflow:visible;"/>
		</clipPath>
		<g class="st13">
			<path class="st0" d="M238.1,172.7l-1.7-5.6l-0.1,1.3c0,0,2.1,13,4.6,16c2.5,2.9,3.8,5.9,2.6,9.2c-1.3,3.4-5.5,13.4-12.2,17.2
				c-6.7,3.8-10.1,5-14.3,0.8c-2.6-2.7-5-5.6-7.3-8.7c1.3,4.1,3.1,8.3,5.5,10.9c5.7,6.2,13.8,2.9,20-1.4
				c6.2-4.3,13.8-26.8,13.8-26.8L238.1,172.7z"/>
			<path class="st2" d="M238.1,172.7l-1.7-5.6l-0.1,1.3c0,0,2.1,13,4.6,16c2.5,2.9,3.8,5.9,2.6,9.2c-1.3,3.4-5.5,13.4-12.2,17.2
				c-6.7,3.8-10.1,5-14.3,0.8c-2.6-2.7-5-5.6-7.3-8.7c1.3,4.1,3.1,8.3,5.5,10.9c5.7,6.2,13.8,2.9,20-1.4
				c6.2-4.3,13.8-26.8,13.8-26.8L238.1,172.7z"/>
		</g>
	</g>
	<path class="st7" d="M211.8,180.7c0,0,0-9.5-4.8-7.7c-4.8,1.9-3.3,14.3-2.4,16.2c0.5,1.1,1.3,1.9,2.4,2.4c0,0,2.4,15.7,8.1,21.9
		c5.7,6.2,13.8,2.9,20-1.4c6.2-4.3,13.8-26.7,13.8-26.7l-11-12.8l-4.3-14.3c0,0-3.3-0.5-1.9,1.9c1.4,2.4,2.8,12.4,2.8,12.4
		S227.6,182.6,211.8,180.7z"/>
	<path class="st14" d="M229.1,193.7c-0.4,1.4-1.1,2.3-1.8,2.2c-0.6-0.2-0.8-1.4-0.5-2.7c0.4-1.3,1.2-2.3,1.8-2.1
		S229.4,192.3,229.1,193.7z"/>
	<path class="st14" d="M239.9,195.7c-0.4,1.3-1.2,2.3-1.8,2.1c-0.6-0.2-0.8-1.4-0.5-2.7c0.4-1.3,1.2-2.3,1.8-2.1
		C240,193.2,240.2,194.4,239.9,195.7z"/>
	<path class="st7" d="M225.2,187.4c0,0,3.4-2.8,6-0.2"/>
	<path class="st7" d="M238.8,189.3c0,0,3.4-2.3,4.1,2.1"/>
	<path class="st7" d="M236.7,195c-1.1,0.9-1.7,2.3-1.8,3.7c0.1,1.3,0.5,2.6,1.4,3.7c0,0-3.2,2.6-6,0.9"/>
	<path class="st7" d="M221.8,203.9c0.3,1.7,1.5,3.1,3.2,3.7"/>
	<path class="st7" d="M205.5,179.6c0,0,0.5-3.4,2.1-3.2c1.6,0.2,1.4,3.7,1.4,3.7s-3.2-0.5-2.1,1.4s2.6,1.2,2.6,1.2"/>
	<path class="st8" d="M167.9,213.6c0,0-10,2.4-13.8,7.2s-2.9,20.5-0.5,27.2c2.4,6.7,12.9,36.3,12.9,36.3l14.8-11.4l-6.7-37.2"/>
	<g>
		<defs>
			<path id="SVGID_9_" d="M167.9,213.6c0,0-10,2.4-13.8,7.2s-2.9,20.5-0.5,27.2c2.4,6.7,12.9,36.3,12.9,36.3l14.8-11.4l-6.7-37.2"/>
		</defs>
		<clipPath id="SVGID_10_">
			<use xlink:href="#SVGID_9_"  style="overflow:visible;"/>
		</clipPath>
		<g class="st15">
			<g>
				<defs>
					<path id="SVGID_11_" d="M167.9,213.6c0,0-10,2.4-13.8,7.2s-2.9,20.5-0.5,27.2c2.4,6.7,12.9,36.3,12.9,36.3l14.8-11.4l-6.7-37.2
						"/>
				</defs>
				<clipPath id="SVGID_12_">
					<use xlink:href="#SVGID_11_"  style="overflow:visible;"/>
				</clipPath>
				<g class="st16">
					<rect x="172" y="192.8" class="st11" width="37.4" height="30.4"/>
					<rect x="172" y="192.8" class="st8" width="37.4" height="30.4"/>
					<path class="st0" d="M181.2,212.4c0,0-1.6-3.8-4.5-3.8c-2.9,0-4.5,3.8-3.2,5.8c1.3,1.9,6.4,0.6,6.4,0.6s-2.9,3.2-1.9,5.1
						c1.1,2.2,3.7,3.1,5.9,2.1c0.4-0.2,0.8-0.5,1.2-0.8c3.2-2.6-1-5.5-1-5.5s4.2,0.3,5.5-1.9c1.3-2.3-1.3-6.4-3.8-5.8
						S181.2,212.4,181.2,212.4z"/>
					<path class="st0" d="M199.5,198.6c0,0-1.6-3.8-4.5-3.8c-2.9,0-4.5,3.8-3.2,5.8s6.4,0.6,6.4,0.6s-2.9,3.2-1.9,5.1
						c1.1,2.2,3.7,3.1,5.9,2.1c0.4-0.2,0.8-0.5,1.2-0.8c3.2-2.6-1-5.5-1-5.5s4.2,0.3,5.5-1.9c1.3-2.3-1.3-6.4-3.8-5.8
						S199.5,198.6,199.5,198.6z"/>
					<rect x="172" y="223.2" class="st11" width="37.4" height="30.4"/>
					<rect x="172" y="223.2" class="st8" width="37.4" height="30.4"/>
					<path class="st0" d="M181.2,242.8c0,0-1.6-3.8-4.5-3.8c-2.9,0-4.5,3.8-3.2,5.8c1.3,1.9,6.4,0.6,6.4,0.6s-2.9,3.2-1.9,5.1
						c1.1,2.2,3.7,3.1,5.9,2.1c0.4-0.2,0.8-0.5,1.2-0.8c3.2-2.6-1-5.5-1-5.5s4.2,0.3,5.5-1.9c1.3-2.3-1.3-6.4-3.8-5.8
						S181.2,242.8,181.2,242.8z"/>
					<path class="st0" d="M199.5,229c0,0-1.6-3.8-4.5-3.8c-2.9,0-4.5,3.8-3.2,5.8s6.4,0.6,6.4,0.6s-2.9,3.2-1.9,5.1
						c1.1,2.2,3.7,3.1,5.9,2.1c0.4-0.2,0.8-0.5,1.2-0.8c3.2-2.6-1-5.5-1-5.5s4.2,0.3,5.5-1.9c1.3-2.3-1.3-6.4-3.8-5.8
						S199.5,229,199.5,229z"/>
					<rect x="172" y="253.6" class="st11" width="37.4" height="30.4"/>
					<rect x="172" y="253.6" class="st8" width="37.4" height="30.4"/>
					<path class="st0" d="M181.2,273.2c0,0-1.6-3.8-4.5-3.8c-2.9,0-4.5,3.8-3.2,5.8c1.3,1.9,6.4,0.6,6.4,0.6s-2.9,3.2-1.9,5.1
						c1.1,2.2,3.7,3.1,5.9,2.1c0.4-0.2,0.8-0.5,1.2-0.8c3.2-2.6-1-5.5-1-5.5s4.2,0.3,5.5-1.9c1.3-2.3-1.3-6.4-3.8-5.8
						C183.2,269.6,181.2,273.2,181.2,273.2z"/>
					<path class="st0" d="M199.5,259.4c0,0-1.6-3.8-4.5-3.8c-2.9,0-4.5,3.8-3.2,5.8c1.3,1.9,6.4,0.6,6.4,0.6s-2.9,3.2-1.9,5.1
						c1.1,2.2,3.7,3.1,5.9,2.1c0.4-0.2,0.8-0.5,1.2-0.8c3.2-2.6-1-5.5-1-5.5s4.2,0.3,5.5-1.9c1.3-2.3-1.3-6.4-3.8-5.8
						S199.5,259.4,199.5,259.4z"/>
					<rect x="172" y="284" class="st11" width="37.4" height="30.4"/>
					<rect x="172" y="284" class="st8" width="37.4" height="30.4"/>
					<path class="st0" d="M181.2,303.6c0,0-1.6-3.8-4.5-3.8c-2.9,0-4.5,3.8-3.2,5.8c1.3,1.9,6.4,0.6,6.4,0.6s-2.9,3.2-1.9,5.1
						c1.1,2.2,3.7,3.1,5.9,2.1c0.4-0.2,0.8-0.5,1.2-0.8c3.2-2.6-1-5.5-1-5.5s4.2,0.3,5.5-1.9c1.3-2.3-1.3-6.4-3.8-5.8
						C183.2,300,181.2,303.6,181.2,303.6z"/>
					<path class="st0" d="M199.5,289.8c0,0-1.6-3.8-4.5-3.8c-2.9,0-4.5,3.8-3.2,5.8s6.4,0.6,6.4,0.6s-2.9,3.2-1.9,5.1
						c1.1,2.2,3.7,3.1,5.9,2.1c0.4-0.2,0.8-0.5,1.2-0.8c3.2-2.6-1-5.5-1-5.5s4.2,0.3,5.5-1.9c1.3-2.3-1.3-6.4-3.8-5.8
						S199.5,289.8,199.5,289.8z"/>
					<rect x="134.5" y="192.8" class="st11" width="37.4" height="30.4"/>
					<rect x="134.5" y="192.8" class="st8" width="37.4" height="30.4"/>
					<path class="st0" d="M143.8,212.4c0,0-1.6-3.8-4.5-3.8c-2.9,0-4.5,3.8-3.2,5.8c1.3,1.9,6.4,0.6,6.4,0.6s-2.9,3.2-1.9,5.1
						c1.1,2.2,3.7,3.1,5.9,2.1c0.4-0.2,0.8-0.5,1.2-0.8c3.2-2.6-1-5.5-1-5.5s4.2,0.3,5.5-1.9c1.3-2.3-1.3-6.4-3.8-5.8
						S143.8,212.4,143.8,212.4z"/>
					<path class="st0" d="M162,198.6c0,0-1.6-3.8-4.5-3.8c-2.9,0-4.5,3.8-3.2,5.8c1.3,1.9,6.4,0.6,6.4,0.6s-2.9,3.2-1.9,5.1
						c1.1,2.2,3.7,3.1,5.9,2.1c0.4-0.2,0.8-0.5,1.2-0.8c3.2-2.6-1-5.5-1-5.5s4.2,0.3,5.5-1.9c1.3-2.3-1.3-6.4-3.8-5.8
						S162,198.6,162,198.6z"/>
					<rect x="134.5" y="223.2" class="st11" width="37.4" height="30.4"/>
					<rect x="134.5" y="223.2" class="st8" width="37.4" height="30.4"/>
					<path class="st0" d="M143.8,242.8c0,0-1.6-3.8-4.5-3.8c-2.9,0-4.5,3.8-3.2,5.8c1.3,1.9,6.4,0.6,6.4,0.6s-2.9,3.2-1.9,5.1
						c1.1,2.2,3.7,3.1,5.9,2.1c0.4-0.2,0.8-0.5,1.2-0.8c3.2-2.6-1-5.5-1-5.5s4.2,0.3,5.5-1.9c1.3-2.3-1.3-6.4-3.8-5.8
						S143.8,242.8,143.8,242.8z"/>
					<path class="st0" d="M162,229c0,0-1.6-3.8-4.5-3.8c-2.9,0-4.5,3.8-3.2,5.8c1.3,1.9,6.4,0.6,6.4,0.6s-2.9,3.2-1.9,5.1
						c1.1,2.2,3.7,3.1,5.9,2.1c0.4-0.2,0.8-0.5,1.2-0.8c3.2-2.6-1-5.5-1-5.5s4.2,0.3,5.5-1.9c1.3-2.3-1.3-6.4-3.8-5.8
						S162,229,162,229z"/>
					<rect x="134.5" y="253.6" class="st11" width="37.4" height="30.4"/>
					<rect x="134.5" y="253.6" class="st8" width="37.4" height="30.4"/>
					<path class="st0" d="M143.8,273.2c0,0-1.6-3.8-4.5-3.8c-2.9,0-4.5,3.8-3.2,5.8c1.3,1.9,6.4,0.6,6.4,0.6s-2.9,3.2-1.9,5.1
						c1.1,2.2,3.7,3.1,5.9,2.1c0.4-0.2,0.8-0.5,1.2-0.8c3.2-2.6-1-5.5-1-5.5s4.2,0.3,5.5-1.9c1.3-2.3-1.3-6.4-3.8-5.8
						C145.7,269.6,143.8,273.2,143.8,273.2z"/>
					<path class="st0" d="M162,259.4c0,0-1.6-3.8-4.5-3.8c-2.9,0-4.5,3.8-3.2,5.8c1.3,1.9,6.4,0.6,6.4,0.6s-2.9,3.2-1.9,5.1
						c1.1,2.2,3.7,3.1,5.9,2.1c0.4-0.2,0.8-0.5,1.2-0.8c3.2-2.6-1-5.5-1-5.5s4.2,0.3,5.5-1.9c1.3-2.3-1.3-6.4-3.8-5.8
						S162,259.4,162,259.4z"/>
					<rect x="134.5" y="284" class="st11" width="37.4" height="30.4"/>
					<rect x="134.5" y="284" class="st8" width="37.4" height="30.4"/>
					<path class="st0" d="M143.8,303.6c0,0-1.6-3.8-4.5-3.8c-2.9,0-4.5,3.8-3.2,5.8c1.3,1.9,6.4,0.6,6.4,0.6s-2.9,3.2-1.9,5.1
						c1.1,2.2,3.7,3.1,5.9,2.1c0.4-0.2,0.8-0.5,1.2-0.8c3.2-2.6-1-5.5-1-5.5s4.2,0.3,5.5-1.9c1.3-2.3-1.3-6.4-3.8-5.8
						C145.7,300,143.8,303.6,143.8,303.6z"/>
					<path class="st0" d="M162,289.8c0,0-1.6-3.8-4.5-3.8c-2.9,0-4.5,3.8-3.2,5.8c1.3,1.9,6.4,0.6,6.4,0.6s-2.9,3.2-1.9,5.1
						c1.1,2.2,3.7,3.1,5.9,2.1c0.4-0.2,0.8-0.5,1.2-0.8c3.2-2.6-1-5.5-1-5.5s4.2,0.3,5.5-1.9c1.3-2.3-1.3-6.4-3.8-5.8
						S162,289.8,162,289.8z"/>
				</g>
			</g>
		</g>
	</g>
	<path class="st7" d="M167.9,213.6c0,0-10,2.4-13.8,7.2s-2.9,20.5-0.5,27.2c2.4,6.7,12.9,36.3,12.9,36.3l14.8-11.4l-6.7-37.2"/>
	<path class="st3" d="M187.5,272.8c-2.1-2.6-5.3-4.1-8.6-4.3c-5.2,0-11.9,6.2-13.4,11.4s2.9,12.4,7.1,15.3s15.3-2.9,17.7-9.1
		S187.5,272.8,187.5,272.8z"/>
	<path class="st0" d="M258.1,250.9c-1.4,2.6-3.3,4.9-5.7,6.7c-4.3,3.3-9.4,3.5-13.2,7.8c-3.8,4.3-13,20.8-21.6,24.6
		s-16.2,0.5-14.3-7.7c1.9-8.2,26.2-21,32.4-25.3c6.2-4.3,15.3-10,18.6-9.5C256.2,247.6,257.7,249,258.1,250.9z"/>
	<g>
		<defs>
			<path id="SVGID_13_" d="M258.1,250.9c-1.4,2.6-3.3,4.9-5.7,6.7c-4.3,3.3-9.4,3.5-13.2,7.8c-3.8,4.3-13,20.8-21.6,24.6
				s-16.2,0.5-14.3-7.7c1.9-8.2,26.2-21,32.4-25.3c6.2-4.3,15.3-10,18.6-9.5C256.2,247.6,257.7,249,258.1,250.9z"/>
		</defs>
		<clipPath id="SVGID_14_">
			<use xlink:href="#SVGID_13_"  style="overflow:visible;"/>
		</clipPath>
		<g class="st17">
			<path class="st2" d="M258.1,250.9c-1.4,2.6-3.3,4.9-5.7,6.7c-4.3,3.3-9.4,3.5-13.2,7.8c-3.8,4.3-13,20.8-21.6,24.6
				s-16.2,0.5-14.3-7.7c1.9-8.2,26.2-21,32.4-25.3c6.2-4.3,15.3-10,18.6-9.5C256.2,247.6,257.7,249,258.1,250.9z"/>
		</g>
	</g>
	<path class="st7" d="M258.1,250.9c-1.4,2.6-3.3,4.9-5.7,6.7c-4.3,3.3-9.4,3.5-13.2,7.8c-3.8,4.3-13,20.8-21.6,24.6
		s-16.2,0.5-14.3-7.7c1.9-8.2,26.2-21,32.4-25.3c6.2-4.3,15.3-10,18.6-9.5C256.2,247.6,257.7,249,258.1,250.9z"/>
	<path class="st3" d="M259,242.3c0,0-0.8-3.4-3.5-4.4c-2.7-1-5.4,0.5-4.9,2.2c0.5,1.7,4.1,1.3,4.9,2.9c0.4,0.8,0.7,1.7,0.7,2.7
		c1.3,0.3,2.6-0.5,2.9-1.8C259.3,243.4,259.3,242.8,259,242.3z"/>
	<polygon class="st6" points="232.8,254.7 247.6,225.6 262.4,225.6 250,251.8 	"/>
	<path class="st3" d="M259,242.3c0,0-7.7-1.3-10,1.4c-1.1,1.6-1.9,3.5-2.2,5.4c0,0,10.3,7.5,12.3,3.7C260.9,249,261,245.1,259,242.3
		z"/>
	<path class="st8" d="M251.4,243.2c-3.1,1.5-9.4,0.2-9.4,0.2s-2.9,0.1-6,0.6c0.5-0.5,1.1-0.9,1.8-1.2c0,0,3.1-1.1,4.4-1.8
		c1.3-0.7,1.1-2,1.1-3.1s-3.8,0.7-5.1,0.7s-6.2,1.3-7.5,4.2c-0.6,1.1-1,2.3-1.3,3.5c-0.5,0.6-0.9,1.3-1.1,2.1
		c-0.4,3.4-1.3,8.8-1.3,8.8s-23.4,10.5-34.3,13.8c0,0-15.3,1.4-18.1,5.7c-2.9,4.3-3.8,11.4,0.5,15.3c4.3,3.8,8.1,1.4,12.4,0.5
		s47.7-30.5,47.7-30.5s7.7,0,11-3.8c3.3-3.8,6.7-10.5,7.2-13.4C253.6,242.9,252.6,242.9,251.4,243.2z"/>
	<g>
		<defs>
			<path id="SVGID_15_" d="M251.4,243.2c-3.1,1.5-9.4,0.2-9.4,0.2s-2.9,0.1-6,0.6c0.5-0.5,1.1-0.9,1.8-1.2c0,0,3.1-1.1,4.4-1.8
				c1.3-0.7,1.1-2,1.1-3.1s-3.8,0.7-5.1,0.7s-6.2,1.3-7.5,4.2c-0.6,1.1-1,2.3-1.3,3.5c-0.5,0.6-0.9,1.3-1.1,2.1
				c-0.4,3.4-1.3,8.8-1.3,8.8s-23.4,10.5-34.3,13.8c0,0-15.3,1.4-18.1,5.7c-2.9,4.3-3.8,11.4,0.5,15.3c4.3,3.8,8.1,1.4,12.4,0.5
				s47.7-30.5,47.7-30.5s7.7,0,11-3.8c3.3-3.8,6.7-10.5,7.2-13.4C253.6,242.9,252.6,242.9,251.4,243.2z"/>
		</defs>
		<clipPath id="SVGID_16_">
			<use xlink:href="#SVGID_15_"  style="overflow:visible;"/>
		</clipPath>
		<g class="st18">
			<path class="st0" d="M240,252.6c-2.6,1.7-5,3.7-7.1,5.9c0,0-39.9,23.9-49.5,26c-3.7,0.9-7.5,0.9-11.2-0.1
				c-0.2,2.8,0.9,5.6,2.9,7.5c4.3,3.8,8.1,1.4,12.4,0.5c4.3-0.9,47.7-30.5,47.7-30.5s7.7,0,11-3.8c1.8-2.1,3.3-4.4,4.5-6.8
				C247.1,252.7,242.1,251.4,240,252.6z"/>
			<path class="st2" d="M240,252.6c-2.6,1.7-5,3.7-7.1,5.9c0,0-39.9,23.9-49.5,26c-3.7,0.9-7.5,0.9-11.2-0.1
				c-0.2,2.8,0.9,5.6,2.9,7.5c4.3,3.8,8.1,1.4,12.4,0.5c4.3-0.9,47.7-30.5,47.7-30.5s7.7,0,11-3.8c1.8-2.1,3.3-4.4,4.5-6.8
				C247.1,252.7,242.1,251.4,240,252.6z"/>
		</g>
	</g>
	<path class="st7" d="M251.4,243.2c-3.1,1.5-9.4,0.2-9.4,0.2s-2.9,0.1-6,0.6c0.5-0.5,1.1-0.9,1.8-1.2c0,0,3.1-1.1,4.4-1.8
		c1.3-0.7,1.1-2,1.1-3.1s-3.8,0.7-5.1,0.7s-6.2,1.3-7.5,4.2c-0.6,1.1-1,2.3-1.3,3.5c-0.5,0.6-0.9,1.3-1.1,2.1
		c-0.4,3.4-1.3,8.8-1.3,8.8s-23.4,10.5-34.3,13.8c0,0-15.3,1.4-18.1,5.7c-2.9,4.3-3.8,11.4,0.5,15.3c4.3,3.8,8.1,1.4,12.4,0.5
		s47.7-30.5,47.7-30.5s7.7,0,11-3.8c3.3-3.8,6.7-10.5,7.2-13.4C253.6,242.9,252.6,242.9,251.4,243.2z"/>
</g>
</svg>
